<svg width="629" height="726" viewBox="0 0 629 726" fill="none" xmlns="http://www.w3.org/2000/svg">
<path d="M615.084 364.536C603.489 342.96 586.391 331.128 560.738 333.315C539.522 335.122 533.012 330.09 527.738 309.711C522.265 288.544 510.331 272.719 490.172 263.833C480.192 259.429 470.012 255.296 459.624 252.001C425.108 241.078 389.466 236.176 353.525 233.02C349.128 232.631 344.731 232.252 339.836 231.832C339.836 228.737 339.537 226.92 339.886 225.223C344.572 202.618 352.747 181.52 366.705 162.889C374.77 152.136 384.351 143.14 396.475 137.209C408.668 131.238 421.3 128.822 435.038 133.435C435.347 136.87 435.786 139.985 435.876 143.11C436.603 169.519 448.298 189.568 471.418 202.148C501.278 218.403 533.61 225.203 567.438 223.685C581.495 223.056 595.553 220.799 609.441 218.353C620.338 216.426 622.282 212.602 620.089 202.009C619.72 200.221 619.391 198.404 618.783 196.697C601.993 149.72 572.184 113.376 528.994 88.575C513.84 79.868 497.23 78.66 480.132 84.421C462.964 90.202 447.411 98.03 436.504 113.436C413.274 108.923 392.218 113.286 374.541 128.423C364.92 136.65 356.017 146.075 348.37 156.16C334.412 174.561 326.207 195.878 320.594 218.213C319.617 222.117 318.491 225.981 317.454 229.815H285.092C283.985 225.892 282.918 222.437 282.041 218.932C274.743 189.638 265.521 161.012 252.032 133.934C239.948 109.682 226.489 86.428 201.823 73.328C201.524 69.744 201.385 67.018 201.066 64.312C197.207 31.433 174.376 6.62199 141.585 1.99899C100.819 -3.75201 61.617 2.988 24.649 21.159C17.84 24.504 11.529 29.526 6.13499 34.918C-1.66101 42.716 -1.81099 46.52 4.46001 55.226C32.495 94.116 69.384 120.315 116.441 130.569C143.071 136.37 167.288 132.656 183.588 107.076C186.908 101.864 191.584 97.521 195.841 92.539C207.656 98.719 213.598 108.564 219.5 118.199C239.19 150.339 252.53 185.215 262.739 221.359C263.447 223.875 263.437 226.6 263.836 229.785C259.658 230.145 256.069 230.395 252.49 230.784C220.337 234.288 188.075 236.984 156.082 241.587C130.349 245.291 105.245 252.38 81.806 264.132C70.74 269.684 60.511 276.403 54.13 287.726C40.85 311.279 34.709 336.739 33.233 363.528C30.103 420.26 39.085 475.444 54.868 529.68C68.068 575.03 86.004 618.242 112.713 657.571C133.161 687.685 160.708 706.755 195.931 715.581C247.675 728.551 299.558 728.851 351.87 719.585C400.951 710.889 441.389 689.402 466.742 644.542C466.962 644.142 467.241 643.773 467.53 643.423C476.184 632.74 474.688 625.202 487.44 619.341C492.245 617.124 502.504 611.792 513.511 612.651C532.633 614.309 542.673 609.276 554.108 600.45C565.613 590.985 576.81 580.381 585.473 568.35C615.473 526.655 628.533 479.068 628.992 428.138C629.191 406.172 625.752 384.355 615.094 364.536H615.084ZM323.007 239.351C328.012 208.349 338.47 179.374 357.911 154.203C367.233 142.142 378.18 131.947 391.958 125.168C404.082 119.197 416.793 115.693 430.243 119.517C436.594 121.314 440.841 119.297 444.45 114.564C456.912 98.23 474.908 92.159 493.85 88.075C504.638 85.749 515.036 88.834 524.179 93.787C565.115 115.982 596.44 153.933 614.107 196.567C614.546 197.635 613.937 199.143 613.698 201.779C609.541 198.374 602.352 191.824 598.953 189.009C569.193 164.427 536.432 144.907 500.411 131.069C491.946 127.814 483.063 125.567 474.25 123.351C471.109 122.562 467.6 123.221 464.27 123.221C464.12 124.479 463.961 125.727 463.811 126.985C520.231 140.893 568.445 169.06 612.701 210.735C601.256 212.812 592.991 214.889 584.606 215.737C545.704 219.681 508.177 214.978 473.572 195.539C453.792 184.426 443.263 167.263 443.194 144.178C443.194 141.443 443.223 138.697 443.144 135.961C442.954 130.14 440.103 127.055 434.221 125.767C420.243 122.692 407.053 124.709 394.321 130.729C380.354 137.329 369.556 147.703 360.543 159.974C343.375 183.338 334.283 209.777 331.601 238.532C330.464 250.713 329.507 262.904 328.411 275.804C324.782 277.292 321.272 277.412 321.342 272.01C321.482 261.107 321.282 250.044 323.017 239.331L323.007 239.351ZM315.549 235.007L313.665 242.536L288.631 241.797L287.345 235.007H315.54H315.549ZM314.124 250.034V278.52H292.828C291.413 268.875 290.096 259.969 288.641 250.034H314.124ZM222.162 110.081C218.214 103.531 213.01 97.481 207.406 92.249C198.444 83.872 192.262 84.85 184.566 94.436C180.288 99.767 175.802 104.929 171.645 110.351C162.891 121.773 151.057 126.196 137.089 126.156C120.858 126.106 105.534 122.003 90.729 115.772C59.404 102.583 33.064 82.864 12.765 55.386C11.22 53.299 10.143 50.873 7.96899 47.079C70.451 38.133 128.635 43.365 181.614 79.089L184.047 75.185C179.341 71.431 174.965 67.098 169.86 64.003C145.224 49.096 117.957 42.137 89.712 38.542C67.928 35.777 46.104 35.158 24.26 38.233C21.279 38.652 18.199 38.293 14.061 36.236C18.697 33.091 23.104 29.526 28.009 26.88C47.121 16.576 67.888 11.035 89.234 8.838C104.986 7.211 121.107 6.95101 136.89 8.19901C168.125 10.666 191.883 34.828 194.505 65.91C195.213 74.377 197.267 79.798 205.462 84.182C212.79 88.105 219.639 94.655 224.196 101.684C234.325 117.3 244.006 133.425 251.862 150.269C268.93 186.882 277.933 225.981 284.085 265.74C284.753 270.043 288.591 277.661 277.534 276.603C276.547 269.124 275.361 261.576 274.593 253.978C269.289 201.549 248.981 154.582 222.132 110.071L222.162 110.081ZM271.283 275.285C267.086 275.704 264.045 276.303 261.014 276.263C245.003 276.064 229.579 278.61 214.007 282.743C198.334 286.897 181.854 287.975 165.772 290.641C151.705 292.977 138.595 297.92 126.681 305.927C123.291 308.204 119.652 310.141 116.003 311.988C101.666 319.247 90.36 317.24 79.583 305.678C73.511 299.168 73.033 293.826 79.723 288.045C85.136 283.372 91.417 278.789 98.097 276.683C118.406 270.293 138.884 264.062 159.701 259.719C192.252 252.93 225.412 250.593 258.642 249.655C261.762 249.565 264.893 249.954 269.259 250.184C269.937 258.521 270.585 266.518 271.293 275.295L271.283 275.285ZM71.777 278.28C78.755 273.288 86.442 268.595 94.518 265.979C115.265 259.26 136.092 251.771 157.487 248.277C189.341 243.075 221.703 240.988 253.856 237.753C257.734 237.364 261.712 238.073 265.65 238.282C265.561 239.58 265.481 240.878 265.391 242.176C256.029 242.775 246.658 243.424 237.296 243.973C199.012 246.2 160.997 250.483 123.859 260.478C114.208 263.074 104.707 266.409 95.455 270.183C89.613 272.559 83.92 275.814 78.915 279.648C64.499 290.691 64.558 303.681 79.603 314.164C86.971 319.297 95.365 323.939 103.969 326.136C128.186 332.306 152.552 338.557 177.248 342.121C226.559 349.24 276.308 349.949 326.018 347.233C367.921 344.937 409.625 340.733 450.182 329.111C458.916 326.605 467.52 323.49 475.895 319.946C481.298 317.659 486.523 314.564 491.168 310.979C505.076 300.256 505.246 287.706 491.328 277.232C491.328 277.232 440.043 245.9 337.393 241.397C338.121 238.782 338.38 236.775 340.006 236.894C378.031 239.88 425.966 246.869 462.186 259.479C505.415 274.536 510.66 287.975 510.66 287.975C516.532 295.823 516.103 304.06 508.008 311.319C500.331 318.198 491.537 324.928 482.016 328.432C461.578 335.971 440.731 343.419 419.396 347.333C327.434 364.177 235.302 364.347 143.569 345.236C125.853 341.542 108.655 335.072 91.527 328.991C84.349 326.445 77.539 322.212 71.348 317.669C53.771 304.769 53.871 291.09 71.796 278.28H71.777ZM337.533 275.295V250.304C349.118 251.052 360.364 251.342 371.51 252.58C400.503 255.825 429.525 259.29 457.331 268.665C466.762 271.84 476.244 275.654 484.698 280.826C498.367 289.183 498.117 297.45 485.127 307.145C483.681 308.224 481.996 308.973 480.9 309.602C470.999 306.446 462.774 303.96 454.649 301.205C439.136 295.943 423.543 290.901 408.229 285.09C385.697 276.543 362.617 272.769 337.533 275.305V275.295ZM464.07 636.504C440.043 678.02 405.149 702.232 358.48 711.398C302.569 722.381 247.136 722.79 191.933 707.394C162.213 699.107 138.624 682.553 120.768 657.252C97.379 624.103 80.879 587.69 68.088 549.429C49.145 492.757 37.58 434.727 39.444 374.74C39.993 357.108 44.001 339.555 46.822 322.042C47.52 317.749 49.793 313.705 52.266 307.076C64.199 323.819 78.955 331.717 94.837 337.968C130.389 351.946 167.687 357.947 205.373 361.91C247.625 366.353 289.997 367.252 332.418 364.716C377.572 362.02 422.327 356.679 465.526 342.431C485.555 335.831 504.887 327.713 519.802 308.034C521.975 316.96 524.338 324.009 525.355 331.258C540.689 440.179 519.034 541.542 464.07 636.504ZM537.289 396.756C537.409 385.014 549.492 370.467 560.638 367.951C568.375 366.204 574.686 369.449 577.827 375.989C582.094 384.905 585.733 394.37 587.876 403.995C589.93 413.241 589.721 422.986 590.129 427.898C589.073 468.036 582.383 502.302 566.032 534.013C560.908 543.948 553.739 553.173 546.053 561.341C538.655 569.199 530.579 569.608 523.9 565.255C515.904 560.053 511.836 549.709 514.598 540.603C528.815 493.706 536.801 445.84 537.299 396.756H537.289ZM579.761 564.815C572.303 575.499 562.483 584.844 552.543 593.411C542.015 602.497 529.592 606.86 514.767 606.211C505.405 605.802 495.834 610.345 485.825 612.801C493.352 595.488 500.789 578.394 508.676 560.253C511.138 562.639 513.272 564.706 515.395 566.772C525.106 576.238 535.554 578.065 546.033 569.658C554.038 563.228 561.267 555.11 566.77 546.414C582.393 521.712 589.651 493.876 593.968 465.24C597.178 443.933 598.494 422.486 594.107 401.209C592.372 392.812 590.01 384.236 586.141 376.647C577.139 358.945 562.413 356.069 546.691 367.991C544.178 369.898 541.855 372.045 537.658 375.599C536.152 361.87 534.827 349.739 533.57 338.287C545.036 338.906 555.315 340.204 565.534 339.835C582.831 339.196 595.334 346.844 604.715 360.503C615.064 375.569 619.82 392.792 621.195 410.685C625.502 466.857 612.023 518.577 579.761 564.805V564.815Z" fill="black"/>
</svg>
