<svg width="688" height="494" viewBox="0 0 688 494" fill="none" xmlns="http://www.w3.org/2000/svg">
<path d="M343.43 166.139C363.788 151.832 382.245 137.831 401.742 125.492C416.702 116.024 433.521 113.404 449.924 122.498C458.625 127.322 466.632 133.505 474.528 139.605C479.802 143.681 484.326 148.713 491.056 155.09C492.763 140.215 490.057 127.891 485.755 116.592C477.346 94.508 467.201 73.076 457.723 51.408C457.099 49.98 455.905 48.788 455.225 47.374C449.508 35.521 452.103 19.19 460.734 12.3C467.534 6.87999 481.717 7.46201 491.556 15.933C498.966 22.296 505.294 30.572 510.124 39.125C527.664 70.151 538.28 103.769 545.483 138.538C546.121 141.601 546.87 144.665 547.828 147.646C548.092 148.491 549.257 149.06 550.576 150.293C552.033 132.798 549.049 116.176 543.873 100.4C537.503 80.964 528.719 62.332 521.1 43.312C518.575 37.004 515.147 30.711 514.342 24.139C512.524 9.50001 524.445 0.142011 538.655 4.32901C550.825 7.92001 559.665 16.238 567.395 25.789C583.659 45.891 593.664 69.194 598.979 94.12C603.434 115.04 605.474 136.472 608.777 158.999C615.785 152.636 618.366 143.473 622.307 135.585C629.343 121.472 634.672 106.514 641.666 92.387C644.844 85.969 649.354 79.522 654.877 75.1C666.464 65.853 680.799 69.818 685.587 83.82C688.016 90.918 688.834 99.735 687.003 106.916C681.271 129.305 674.929 151.652 666.992 173.348C654.308 207.964 639.376 241.748 626.873 276.42C618.088 300.805 607.68 324.192 594.844 346.65C579.732 373.073 578.497 402.99 574 432.06C573.515 435.18 573.223 438.368 573.279 441.515C573.612 461.603 562.746 473.525 545.261 481.247C524.611 490.355 503.227 495.318 480.634 493.696C460.526 492.254 452.755 485.558 453.615 465.124C454.351 447.753 453.976 430.3 453.338 412.915C453.033 404.57 451.381 396.197 449.591 387.99C447.787 379.741 442.333 375.249 433.507 376.22C420.935 377.606 408.376 379.256 395.803 380.725C391.099 381.28 386.353 382.112 381.662 381.987C367.396 381.613 352.728 382.042 343.763 367.167C329.165 380.337 312.678 379.575 296.345 378.23C284.272 377.232 272.351 374.598 260.292 373.406C244.083 371.811 240.683 374.127 237.603 390.18C235.632 400.453 234.855 411.044 234.508 421.525C234.008 436.802 234.605 452.12 234.3 467.411C234.036 480.9 229.498 487.125 216.218 489.176C184.05 494.167 154.353 487.055 127.542 468.548C120.701 463.821 117.024 457.236 116.26 448.641C115.095 435.526 113.055 422.481 111.473 409.394C108.156 381.973 101.134 356.035 87.187 331.595C77.113 313.919 70.299 294.345 62.611 275.38C48.387 240.223 33.941 205.136 20.854 169.549C12.889 147.867 6.75501 125.465 0.968015 103.076C-0.765985 96.352 -0.0449848 88.145 2.13402 81.449C6.93602 66.727 21.978 62.374 33.774 72.397C39.519 77.277 43.793 84.472 47.207 91.389C56.519 110.271 64.956 129.568 73.893 148.63C75.1 151.222 77.196 153.399 80.138 157.53C82.053 139.189 82.983 123.094 85.55 107.276C90.088 79.425 99.288 53.113 115.428 29.671C123.268 18.289 132.469 8.21101 145.638 2.52701C153.548 -0.882992 161.375 -1.396 167.911 4.482C174.323 10.249 175.821 18.178 172.879 26.302C170.742 32.208 167.981 37.933 165.011 43.465C147.775 75.558 138.367 109.702 139.185 146.772C140.296 143.265 141.725 139.841 142.46 136.264C149.635 100.927 160.556 66.865 178.291 35.355C182.857 27.231 188.81 19.343 195.805 13.271C206.129 4.315 220.894 3.56701 227.902 9.63901C236.354 16.958 238.519 33.053 232.537 44.837C231.344 47.18 229.651 49.259 228.347 51.533C213.498 77.332 202.854 104.726 197.567 134.06C196.665 139.05 196.72 144.221 196.207 150.931C208.724 141.019 219.437 132.077 230.636 123.787C248.399 110.631 267.217 111.546 285.757 121.749C307.599 133.755 327.624 148.311 343.444 166.167L343.43 166.139ZM89.116 174.984C74.823 171.587 71.923 161.675 67.94 153.842C58.17 134.614 49.636 114.749 40.546 95.16C38.784 91.348 37.216 87.313 34.773 83.959C30.582 78.233 25.253 73.561 17.399 75.766C10.183 77.79 8.06002 84.277 7.54602 90.599C7.08802 96.255 7.54601 102.313 9.17001 107.72C15.22 127.891 21.146 148.145 28.528 167.844C41.296 201.864 55.978 235.191 68.217 269.405C76.96 293.832 87.632 317.08 99.996 339.816C105.963 350.781 110.931 362.911 113.291 375.097C117.898 398.844 120.035 423.063 123.948 446.963C124.795 452.176 127.556 458.622 131.595 461.506C156.185 479.112 183.828 486.154 213.9 481.552C224.627 479.916 226.168 477.573 226.459 466.912C226.681 459.024 225.765 451.081 226.237 443.22C227.403 423.798 227.889 404.223 230.928 385.078C233.537 368.623 241.086 364.131 257.836 365.337C266.759 365.989 275.571 368.373 284.508 368.928C297.094 369.704 309.82 370.37 322.365 369.455C333.161 368.665 338.393 362.191 339.559 352.001C340.863 340.578 337.116 333.147 326.805 329.39C318.909 326.521 310.541 324.996 302.409 322.778C278.138 316.137 255.768 305.823 237.533 288.037C209.029 260.255 207.017 211.943 232.926 181.666C246.429 165.876 262.818 162.937 281.024 173.5C288.768 177.992 295.956 183.44 303.617 188.084C308.543 191.065 313.622 194.309 319.076 195.82C329.858 198.8 338.615 192.021 337.643 180.972C337.13 175.136 334.965 167.525 330.788 164.281C313.344 150.779 295.443 137.623 276.514 126.338C264.136 118.963 249.523 119.531 237.617 128.806C223.989 139.439 211.291 151.305 198.511 162.978C195.305 165.903 193.14 169.743 186.368 165.46C186.757 157.669 186.368 148.727 187.783 140.076C193.126 106.971 204.145 75.863 221.408 46.93C225.002 40.914 227.916 33.358 227.819 26.552C227.667 15.267 220.09 11.538 209.252 14.921C198.83 18.164 192.751 25.914 187.534 34.648C172.518 59.768 162.596 87.009 155.422 115.178C150.898 132.951 147.97 151.125 144.306 169.133C134.453 166.541 132.996 165.889 131.428 158.473C130.137 152.359 129.596 145.899 129.874 139.647C131.553 102.064 142.28 67.115 161.292 34.675C167.106 24.749 167.897 16.002 163.387 11.191C158.697 6.20101 147.984 6.852 139.199 15.586C129.61 25.11 120.493 35.84 113.971 47.596C96.222 79.592 89.144 114.582 89.103 151.042C89.103 158.292 89.103 165.529 89.103 174.928L89.116 174.984ZM501.422 170.215C499.938 170.797 498.439 171.379 496.954 171.961C494.359 169.785 491.514 167.83 489.211 165.376C477.29 152.678 465.397 140.132 450.035 131.19C439.1 124.827 427.499 123.136 416.536 127.336C392.57 136.527 372.434 152.137 354.477 170.215C347.996 176.744 348.704 189.276 353.949 195.099C358.945 200.658 365.828 201.171 375.695 196.36C379.47 194.517 382.994 192.16 386.547 189.914C394.124 185.117 401.368 179.725 409.25 175.496C425.75 166.624 440.987 169.508 453.685 183.149C479.843 211.249 479.746 260.741 453.352 288.481C437.31 305.338 417.438 315.999 395.484 322.958C385.451 326.147 375.098 328.323 365.051 331.484C351.687 335.698 347.482 341.895 348.482 354.524C349.397 366.142 355.809 372.921 369.755 373.115C385.492 373.323 401.409 372.297 416.98 370.037C444.276 366.086 457.015 364.741 460.485 406.206C460.623 407.786 460.651 409.367 460.679 410.947C461.026 429.912 461.345 448.862 461.72 467.827C461.997 481.593 462.996 483.479 476.61 485.239C504.975 488.899 531.05 481.94 554.864 466.358C560.886 462.421 564.272 457.083 564.633 449.361C565.147 438.326 566.493 427.305 568.102 416.367C572.391 387.13 577.067 358.087 593.567 332.385C600.062 322.265 605.377 311.174 609.831 299.973C627.497 255.417 645.01 210.792 661.76 165.889C668.92 146.675 674.638 126.865 679.953 107.041C683.533 93.69 679.106 81.921 671.432 79.107C663.12 76.057 654.572 82.392 648.466 96.227C642.304 110.201 636.67 124.439 629.953 138.136C624.167 149.933 617.283 161.204 610.636 172.558C608.333 176.495 605.03 178.962 600.353 175.441C599.021 156.504 598.605 137.512 596.148 118.783C592.263 89.185 583.229 61.001 565.494 36.616C559.152 27.896 550.395 20.493 541.472 14.297C537.781 11.732 528.872 11.787 525.791 14.532C522.571 17.388 523.057 24.902 522.877 30.406C522.793 32.651 525.097 35.064 526.485 37.282C540.404 59.476 549.132 83.82 554.031 109.286C556.89 124.162 557.445 139.591 557.778 154.813C557.958 163.158 555.738 171.726 543.581 173.292C541.014 158.944 539.099 145.025 535.977 131.37C528.539 98.861 517.936 67.462 500.965 38.502C495.83 29.754 489.918 21.852 479.594 18.372C468.062 14.491 460.054 18.608 460.207 30.627C460.304 37.448 463.565 44.823 467.146 50.923C485.561 82.323 497.273 115.871 501.325 152.026C501.991 158.029 501.422 164.157 501.422 170.229V170.215ZM344.929 330.402C356.988 326.659 368.34 322.75 379.886 319.631C402.034 313.656 422.85 305.019 440.488 290.033C470.338 264.664 474.681 223.435 451.02 192.104C439.669 177.077 425.903 174.36 409.5 184.23C402.728 188.306 396.608 193.546 389.6 197.081C381.315 201.268 372.475 206.564 363.705 206.896C356.517 207.174 349.092 200.866 340.891 197.081C330.011 208.199 317.202 205.801 304.435 198.093C296.317 193.2 288.657 187.544 280.664 182.428C261.458 170.131 245.305 173.362 234.244 193.546C213.04 232.252 218.702 265.828 251.993 290.075C263.359 298.337 276.459 304.534 289.406 310.204C299.467 314.599 310.666 316.29 321.088 319.964C329.331 322.875 337.158 326.964 344.901 330.402H344.929Z" fill="black"/>
</svg>
