<svg width="603" height="783" viewBox="0 0 603 783" fill="none" xmlns="http://www.w3.org/2000/svg">
<path d="M0.259007 643.357C24.869 637.419 39.912 620.153 52.553 600.331C74.853 565.377 87.665 526.668 96.919 486.618C111.057 425.391 115.161 363.587 106.251 301.284C103.91 284.952 98.916 268.995 94.734 252.96C90.895 238.233 93.907 227.948 104.503 222.244C115.926 216.073 130.236 219.424 139.162 230.737C143.891 236.722 148.042 243.158 154.253 251.931C154.752 245.479 156.016 241.147 155.251 237.236C151.132 216.385 146.512 195.643 142.018 174.855C141.035 170.274 139.131 165.739 138.959 161.142C138.164 139.714 155.938 128.681 174.992 138.592C178.597 140.462 181.874 142.956 188.35 147.132C187.024 135.616 186.431 126.671 184.87 117.898C182.015 101.815 185.978 92.699 198.681 87.946C211.899 82.991 224.804 87.276 231.749 100.647C238.007 112.693 242.61 125.58 247.807 138.156C249.149 141.382 250.007 144.795 251.021 147.896C258.887 146.026 266.112 143.049 273.353 142.956C280.11 142.878 286.914 145.87 293.858 147.553C297.806 126.827 301.255 105.275 306.264 84.081C308.527 74.513 312.553 64.758 318.124 56.717C330.577 38.702 343.92 37.471 362.163 51.512C364.457 45.871 366.173 40.229 368.935 35.149C373.43 26.859 377.503 17.961 383.698 11.057C400.458 -7.64296 424.631 -1.76796 431.903 22.231C433.417 27.233 433.963 32.516 435.258 39.17C439.191 38.126 442.827 36.786 446.572 36.225C466.594 33.186 481.278 49.221 476.363 68.872C472.773 83.193 468.154 97.281 465.08 111.711C463.441 119.409 463.129 132.406 465.501 141.195C469.824 135.928 474.74 125.502 479.499 120.671C490.173 109.81 500.364 108.018 511.428 114.36C522.835 120.905 526.752 129.725 522.445 144.763C508.775 192.574 503.719 241.225 506.528 290.749C509.571 344.31 519.137 396.608 538.456 446.834C552.86 484.281 571.961 518.814 603 544.464C591.327 605.473 510.242 661.278 451.597 643.544C450.676 641.44 449.163 638.915 448.429 636.173C445.214 624.314 438.317 619.841 425.38 619.124C401.348 617.8 381.763 605.037 364.129 589.313C357.528 583.423 350.724 577.75 342.968 571.065C340.83 574.852 337.647 580.103 334.822 585.558C313.271 626.994 286.149 664.176 250.663 694.876C231.718 711.254 211.165 725.014 187.789 734.629C161.634 745.382 143.345 761.869 132.702 782.424C92.986 791.244 -6.045 696.699 0.289997 643.419L0.259007 643.357ZM126.226 773.354C143.267 747.688 169.109 732.619 197.292 720.479C205.391 716.989 212.913 711.94 220.295 707.015C255.469 683.593 283.215 652.894 305.827 617.582C365.237 524.782 386.179 422.43 380.39 313.642C379.656 299.913 368.811 290.095 355.921 290.516C346.651 290.812 341.611 295.222 341.392 304.572C340.19 354.938 321.246 401.61 311.164 450.122C310.681 452.428 310.056 454.921 308.714 456.745C306.967 459.129 304.423 460.937 302.223 462.994C301.193 462.448 300.147 461.903 299.117 461.373C301.427 453.16 304.017 445.01 306.015 436.735C319.326 381.897 319.872 326.186 314.457 270.553C311.664 241.817 304.954 213.409 298.961 185.062C297.042 175.977 292.422 167.235 287.803 159.038C283.637 151.636 276.474 148.94 267.891 151.854C259.526 154.69 255.516 160.534 255.812 169.276C255.89 171.629 256.358 173.982 256.811 176.32C268.281 234.929 270.122 294.178 265.862 353.442C263.802 382.256 257.295 410.758 252.535 439.369C251.833 443.577 251.708 449.467 243.203 447.971C243.531 444.683 243.578 441.364 244.202 438.154C246.933 424.206 250.397 410.368 252.535 396.343C261.274 339.152 261.368 281.742 255.282 224.333C251.849 191.903 246.839 159.646 235.182 128.931C231.624 119.565 227.27 110.34 222.027 101.831C217.33 94.195 209.121 93.961 201.303 96.642C195.186 98.745 190.863 103.389 192.501 110.215C198.837 136.598 192.439 164.913 204.783 190.376C205.782 192.449 205.844 194.973 206.359 197.295C217.891 248.643 219.202 300.754 217.002 352.974C215.987 377.207 212.788 401.345 210.182 425.484C209.839 428.679 207.186 431.608 205.61 434.678C204.283 434.289 202.957 433.899 201.631 433.51C202.27 426.03 202.598 418.487 203.612 411.054C211.29 354.346 212.086 297.497 204.845 240.82C201.865 217.46 195.466 194.459 189.677 171.536C186.852 160.394 179.908 151.199 169.39 145.621C159.637 140.447 151.381 143.657 148.76 154.191C147.558 159.007 148.229 164.648 149.384 169.604C153.394 186.87 158.997 203.825 161.977 221.232C164.053 233.324 165.239 246.586 162.305 258.18C159.949 267.499 160.588 275.088 162.664 283.721C171.621 320.81 175.726 358.428 173.728 396.577C173.494 401.112 175.429 407.735 167.361 408.374C166.503 406.831 165.473 405.818 165.457 404.789C165.379 401.252 165.691 397.714 165.769 394.177C166.846 351.182 161.868 308.982 148.9 267.888C144.78 254.845 139.35 242.643 128.504 233.106C121.403 226.873 114.724 226.39 107.624 230.909C100.711 235.319 99.915 242.176 102.443 249.78C105.236 258.196 108.045 266.673 110.074 275.291C121.294 323.179 122.043 371.597 116.706 420.248C110.729 474.759 99.103 527.836 75.149 577.595C60.293 608.434 42.206 636.64 9.46601 650.899C13.336 696.777 78.66 765.453 126.21 773.339L126.226 773.354ZM458.869 636.547C518.201 647.034 583.821 593.1 592.981 546.833C571.446 528.366 555.154 505.147 543.029 479.107C503.204 393.538 491.141 303.388 500.816 210.198C503.126 187.976 509.618 166.16 514.549 144.234C517.389 131.611 513.581 123.227 502.985 120.391C493.872 117.944 487.333 123.025 483.401 129.445C476.956 139.964 471.135 151.184 467.218 162.84C457.511 191.763 454.344 221.793 454.687 252.258C454.749 258.273 457.09 265.193 447.867 271.301C446.915 264.086 445.074 258.445 445.667 253.069C448.694 225.455 452.377 197.903 455.732 170.32C456.435 164.586 459.712 153.241 458.932 147.662C452.393 128.058 455.654 105.197 466.843 71.209C468.607 67.204 469.418 61.984 468.498 57.808C466.859 50.328 461.085 45.279 453.594 44.172C445.901 43.035 438.972 46.915 436.007 53.803C427.83 72.768 418.436 91.608 413.504 111.477C398.944 170.149 395.636 229.709 405.093 289.705C405.827 294.349 405.187 299.227 405.187 303.98C396.136 297.902 396.167 289.643 395.09 281.773C389.456 240.352 390.533 198.9 395.745 157.604C399.616 126.983 405.124 96.439 418.373 68.311C423.897 56.577 426.176 45.497 424.678 32.874C423.07 19.363 418.623 11.26 409.416 9.42104C398.43 7.23904 390.533 13.457 386.008 21.966C379.656 33.887 373.508 46.463 370.418 59.491C353.19 132.406 352.425 206.131 360.899 280.106C366.127 282.895 371.105 284.999 375.443 288.007C383.074 293.29 388.114 300.396 388.505 310.12C390.611 361.202 390.627 412.223 378.002 462.168C369.903 494.223 359.931 525.811 350.147 559.892C369.7 586.789 394.7 608.917 432.714 610.834C442.593 611.333 449.568 615.649 453.236 625.093C454.702 628.895 456.825 632.448 458.853 636.547H458.869ZM326.926 333.246L330.125 333.355C330.905 324.27 332.918 315.075 332.138 306.13C331.28 296.344 335.306 290.329 342.547 285.358C345.387 283.41 348.492 281.851 351.957 279.841C350.958 270.491 349.554 261.749 349.163 252.975C346.729 197.311 346.511 141.756 355.406 86.466C356.763 78.004 356.186 68.607 353.97 60.332C351.052 49.424 342.672 47.289 333.23 53.662C323.93 59.943 318.468 69.152 316.236 79.858C312.023 100.101 307.638 120.375 304.969 140.852C303.471 152.306 302.816 164.913 305.999 175.759C317.266 214.094 323.056 253.1 324.71 292.869C325.272 306.348 326.177 319.813 326.941 333.277L326.926 333.246Z" fill="black"/>
</svg>
