<svg width="559" height="694" viewBox="0 0 559 694" fill="none" xmlns="http://www.w3.org/2000/svg">
<path d="M49.154 267.538C49.302 267.473 49.423 267.352 49.488 267.195C52.536 259.466 55.388 252.955 57.591 246.239C58.566 243.248 59.086 239.588 58.297 236.634C53.307 218.009 54.283 199.366 59.551 181.281C62.794 170.143 69.261 160.018 71.77 148.528C72.485 145.277 73.981 142.267 75.858 139.518C83.198 128.724 80.104 116.035 79.844 103.848C79.537 89.413 79.287 74.968 78.971 60.524C78.859 55.555 79.119 51.607 85.716 50.334C88.142 49.87 90.083 45.049 91.579 41.9C102.999 17.72 121.573 3.15501 148.389 0.341009C181.727 -3.15199 210.652 20.582 213.932 53.948C214.675 61.509 214.462 69.219 214.025 76.817C213.3 89.357 214.917 100.94 221.18 112.384C226.113 121.413 228.371 131.901 232.097 142.657C232.162 142.852 232.329 143.001 232.534 143.047C255.484 148.528 266.225 166.558 270.202 188.916C272.358 201.076 274.625 211.842 285.385 219.486C288.897 221.985 291.025 226.444 294.5 231.107C294.677 231.339 294.992 231.413 295.253 231.283C299.397 229.184 303.754 227.243 307.824 224.809C323.025 215.678 338.254 215.631 353.855 223.824C356.615 225.273 360.173 226.342 363.175 225.979C388.309 223.007 405.842 234.33 418.005 255.128C421.378 260.887 425.206 264.919 431.236 267.91C447.357 275.889 456.574 290.008 462.726 306.292C470.057 325.715 478.493 331.075 498.591 326.904C506.341 325.297 512.817 326.774 519.293 330.369C531.224 336.992 539.558 346.978 545.793 358.886C552.994 372.634 556.822 387.459 558.151 402.758C562.202 449.5 551.712 493.019 527.646 533.231C518.633 548.298 507.307 561.479 493.425 572.365C483.195 580.382 471.989 585.797 458.814 587.209C437.108 589.541 420.569 600.409 409.652 619.265C386.59 659.078 352.006 681.464 306.867 688.886C250.959 698.082 196.018 695.24 142.061 677.387C123.961 671.395 108.481 661.586 95.305 647.634C48.708 598.3 21.26 539.436 7.70402 473.586C-1.91298 426.891 -2.50801 379.944 5.81699 333.053C8.17699 319.779 12.377 306.719 16.847 293.956C20.526 283.45 29.558 277.217 38.942 271.951C42.166 270.139 45.762 268.978 49.144 267.557L49.154 267.538ZM18.881 315.432C18.621 315.181 18.194 315.209 17.98 315.497C16.847 316.983 16.233 317.541 16.047 318.21C14.84 322.715 13.548 327.22 12.656 331.79C3.03001 381.282 4.33999 430.671 15.369 479.708C29.539 542.669 56.856 598.904 102.163 645.767C112.755 656.728 124.779 664.689 139.143 669.686C198.917 690.493 259.601 693.336 321.121 679.151C353.623 671.665 379.723 654.387 397.396 625.879C407.663 609.317 417.577 592.383 425.828 574.771C445.397 532.961 457.104 488.653 463.534 443.044C468.533 407.597 469.917 371.983 464.054 336.453C462.428 326.598 460.746 316.63 455.469 306.608C455.255 306.199 454.679 306.18 454.428 306.561C444.254 321.721 430.13 329.681 414.725 335.357C401.614 340.187 388.29 344.869 374.678 347.86C285.162 367.534 195.163 368.686 105.117 352.272C74.027 346.606 43.012 339.184 18.863 315.441L18.881 315.432ZM362.998 332.097C363.277 332.05 363.5 331.818 363.509 331.539C365.079 307.499 367.755 285.364 365.488 263.024C365.014 258.389 364.383 253.753 363.667 249.146C361.762 236.903 354.162 229.686 342.826 225.812C333.014 222.459 323.546 223.416 314.524 228.292C264.869 255.137 220.185 288.652 180.305 328.558C176.793 332.069 173.755 336.054 170.029 340.457C169.732 340.81 169.917 341.367 170.373 341.441C200.543 346.365 279.81 344.702 294.203 339.203C294.454 339.11 294.602 338.84 294.565 338.58C290.978 310.045 295.29 285.271 306.198 276.744C306.653 276.391 307.295 276.818 307.165 277.375C301.971 298.275 295.057 318.293 302.844 340.596C302.937 340.875 303.225 341.042 303.513 340.995C323.025 338.079 342.287 335.19 363.007 332.097H362.998ZM153.824 175.048C153.545 175.057 153.313 175.262 153.257 175.531C149.903 191.777 148.686 210.708 144.412 225.088C137.963 246.75 137.155 268.411 140.24 290.528C141.764 301.48 142.563 303.672 153.099 304.109C166.572 304.666 180.129 303.384 193.63 302.641C196.046 302.511 198.852 301.685 200.71 300.208C216.45 287.667 232.023 274.904 248.302 261.668C248.525 261.482 248.59 261.166 248.451 260.915C242.55 250.001 243.21 238.557 243.758 226.704C244.148 218.158 240.59 209.426 238.787 200.788C238.388 198.856 237.96 196.923 237.458 194.629C237.366 194.193 237.756 193.812 238.193 193.905C245.003 195.354 246.453 200.611 247.085 205.088C248.553 215.511 249.008 226.082 249.547 236.615C249.9 243.536 248.72 250.772 255.317 256.652C255.521 256.837 255.828 256.856 256.06 256.707C266.653 249.694 277.199 242.718 288.86 234.999C289.167 234.795 289.222 234.367 288.981 234.098C284.354 228.71 280.786 223.704 276.298 219.737C269.505 213.737 265.844 206.751 265.426 197.685C264.832 184.588 260.065 172.884 252.037 162.582C247.094 156.238 241.157 151.259 232.097 150.088C231.818 150.051 231.54 150.228 231.447 150.497C226.541 164.765 218.922 177.537 218.522 193.412C218.132 209.073 203.061 215.919 190.433 207.847C190.164 207.671 190.08 207.29 190.238 207.011C197.161 195.214 197.068 192.66 187.311 175.55C187.2 175.354 186.986 175.224 186.754 175.243C176.403 175.689 164.807 174.621 153.815 175.094L153.824 175.048ZM524.943 417.425C524.943 417.425 524.943 417.388 524.943 417.369C524.766 413.542 524.775 409.715 524.376 405.925C523.8 400.436 523.604 394.769 522.006 389.558C519.795 382.331 516.998 375.142 513.393 368.509C510.401 363.001 504.975 360.261 498.303 361.125C486.772 362.62 474.6 376.609 473.978 388.174C473.086 404.69 472.073 421.234 470.28 437.675C467.046 467.298 460.338 496.224 451.603 524.704C449.16 532.683 450.832 540.012 457.03 545.53C462.168 550.109 471.06 549.71 477.992 542.929C486.066 535.024 493.75 526.116 499.279 516.334C516.534 485.774 523.242 452.185 524.943 417.435V417.425ZM474.164 367.107C474.219 367.571 474.758 367.803 475.13 367.525C479.516 364.255 482.842 361.496 486.484 359.22C499.214 351.288 511.637 353.582 519.442 366.28C523.354 372.643 526.085 380.084 527.758 387.403C532.469 407.96 531.233 428.73 527.906 449.379C523.354 477.701 515.261 504.909 499.065 528.884C493.713 536.807 486.624 544.025 479.004 549.821C469.258 557.243 460.588 556.175 451.018 548.911C449.587 547.824 448.305 546.542 446.363 544.777C446.056 544.498 445.555 544.61 445.397 545C439.05 560.188 433.141 574.362 427.324 588.287C427.129 588.751 427.566 589.234 428.049 589.095C439.004 586.02 449.039 582.342 459.39 580.79C469.899 579.211 478.884 575.18 487.209 569.189C500.831 559.379 511.544 546.83 520.52 532.739C539.856 502.364 550.123 468.951 552.706 433.263C554.313 411.081 552.046 389.15 543.275 368.352C537.895 355.607 530.675 344.07 518.197 337.224C513.569 334.688 507.493 331.957 502.819 332.933C492.087 335.162 481.876 334.642 470.809 330.954C470.391 330.815 469.964 331.158 470.019 331.595C471.45 343.829 472.742 354.929 474.164 367.107ZM131.301 153.131C133.159 146.935 139.199 146.926 140.593 148.784C142.916 149.713 141.637 158.073 141.172 162.253C140.86 165.058 140.212 169.934 141.172 170.894C141.172 170.894 142.168 171.191 143.447 171.258C144.089 171.191 146.001 171.258 146.335 171.258H200.812C201.165 171.258 201.435 170.961 201.407 170.608C198.787 135.793 199.353 102.074 196.845 67.398C196.817 67.073 196.538 66.813 196.204 66.831C172.668 67.937 150.749 68.968 127.464 70.064C127.129 70.082 126.869 70.352 126.878 70.686C127.566 92.673 126.655 171.258 128.049 171.258C130.372 172.354 128.978 165.207 131.301 153.131ZM90.632 168.592C90.511 168.462 90.334 168.388 90.158 168.397C86.878 168.564 84.443 171.695 85.28 174.918C85.503 175.782 94.144 188.675 94.525 189.446C108.509 217.619 109.224 247.307 105.21 277.654C103.714 288.987 102.72 300.384 101.587 311.754C101.066 316.965 102.488 321.489 108.407 321.953C117.001 322.622 125.801 324.275 135.362 319.937C135.585 319.835 135.724 319.603 135.715 319.361C135.26 309.97 135.39 300.365 134.163 290.937C131.227 268.393 131.887 246.294 138.01 224.205C141.067 213.179 144.979 202.153 145.49 190.356C145.666 186.232 142.507 182.851 138.372 182.851C138.066 182.851 137.796 182.618 137.768 182.312C136.635 171.174 139.208 165.04 138.855 153.586C138.772 150.781 134.721 150.4 134.079 153.131C131.654 163.451 133.16 168.926 129.006 180.528C128.393 182.238 125.931 182.033 125.596 180.259C123.598 169.456 124.611 159.442 124.091 149.903C123.924 146.893 119.519 146.809 119.231 149.81C118.284 159.6 119.677 169.948 116.908 180.389C116.314 182.646 113.164 182.739 112.439 180.519C109.745 172.243 110.088 163.975 108.908 156.21C108.481 153.377 104.383 153.451 104.095 156.303C103.445 162.74 104.662 174.76 104.002 181.253C103.817 183.111 101.521 183.891 100.249 182.526L90.613 168.601L90.632 168.592ZM67.551 177.361C60.647 196.375 59.365 221.632 65.702 231.766C65.907 232.092 66.362 232.129 66.631 231.859C68.62 229.899 70.701 227.837 73.842 224.735C74.204 224.372 74.836 224.614 74.873 225.125C75.477 233.132 71.714 236.829 68.638 240.814C58.483 253.976 54.413 268.69 58.139 285.029C61.27 298.74 75.161 306.227 88.606 302.14C93.54 300.635 96.625 298.09 97.127 292.507C98.325 279.001 100.741 265.55 101.159 252.035C102.023 224.112 98.158 195.335 76.22 175.262C73.414 172.698 68.852 173.785 67.551 177.361ZM370.311 330.453C370.292 330.88 370.729 331.196 371.138 331.047C387.305 325.028 401.308 319.919 415.208 314.559C420.188 312.636 423.459 309.478 423.487 303.227C423.561 284.491 419.501 267.092 408.462 251.701C400.118 240.071 388.736 233.271 374.52 231.609C371.788 231.293 368.917 232.222 366.055 232.723C365.693 232.788 365.479 233.15 365.591 233.494C376.22 265.235 371.5 296.511 370.301 330.462L370.311 330.453ZM51.031 275.415C51.133 274.96 50.696 274.551 50.25 274.7C39.546 278.156 31.973 282.893 26.129 290.12C19.69 298.08 19.43 305.558 26.38 313.017C30.914 317.894 36.406 322.696 42.445 325.195C58.455 331.818 74.585 339.045 91.394 342.733C181.857 362.592 272.637 361.626 363.37 344.098C383.83 340.141 403.974 334.623 422.52 324.907C430.298 320.829 437.517 315.339 444.096 309.487C449.531 304.657 451.102 297.662 447.524 290.826C443.492 283.107 437.053 278.035 428.384 275.805C427.91 275.685 427.492 276.168 427.668 276.623C428.69 279.27 430.391 281.202 432.212 283.014C440.983 291.717 441.41 301.071 432.565 309.72C428.384 313.807 423.375 317.42 418.126 319.965C409.754 324.015 401.047 327.591 392.165 330.313C349.2 343.457 304.823 347.609 260.232 349.82C219.005 351.864 177.834 350.47 136.848 345.436C113.238 342.528 89.712 338.775 67.356 330.248C59.114 327.099 50.826 323.235 43.737 318.08C30.431 308.419 30.394 297.217 42.519 286.367C44.722 284.398 47.425 282.958 49.479 280.859C50.324 280.004 50.352 278.341 51.021 275.415H51.031ZM86.748 60.747C86.395 60.561 85.382 60.961 85.307 61.351C84.843 62.28 85.057 64.491 85.085 65.828C85.586 87.815 86.246 109.802 86.664 131.789C87.138 155.448 91.7 167.124 99.598 175.02C99.951 175.401 100.592 175.197 100.638 174.676C101.586 163.567 100.601 133.898 100.638 126.374C100.833 110.842 100.444 96.584 100.444 80.858C100.444 68.949 95.5 65.289 86.748 60.747ZM45.651 308.373C47.472 302.186 55.305 297.718 51.746 289.627C51.597 289.293 51.17 289.172 50.863 289.367C39.602 296.25 38.45 299.176 44.554 308.54C44.842 308.976 45.502 308.874 45.651 308.373ZM146.038 61.611C143.362 58.174 141.652 55.973 139.654 53.409C139.431 53.121 138.985 53.093 138.735 53.362C136.096 56.13 133.894 58.443 130.92 61.564C130.558 61.945 130.827 62.586 131.357 62.586H145.564C146.066 62.586 146.344 62.01 146.038 61.611Z" fill="black"/>
</svg>
