<svg width="870" height="394" viewBox="0 0 870 394" fill="none" xmlns="http://www.w3.org/2000/svg">
<path d="M665.909 106.85C671.538 106.029 677.397 105.965 682.744 104.26C721.17 91.999 756.584 73.66 789.305 50.14C793.215 47.331 796.652 43.715 799.819 40.034C805.627 33.288 812.089 28.877 821.474 31.621C831.283 34.481 833.424 42.099 833.655 50.986C833.681 51.91 834.219 52.807 834.783 54.539C844.207 56.462 854.965 57.604 857.965 70.018C860.722 81.432 853.118 89.357 848.387 97.963C849.156 99.117 849.528 100.361 850.195 100.553C869.658 105.978 875.492 123.086 864.491 142.438C855.426 158.379 843.643 171.871 830.219 184.054C806.922 205.176 781.048 222.489 752.481 235.724C748.955 237.353 742.839 239.2 739.403 241.008C739.121 241.162 739.095 241.803 738.313 243.971C758.558 245.022 779.522 241.714 796.575 231.21C802.242 227.722 808.576 224.105 814.974 223.259C829.385 221.361 838.36 232.8 833.475 246.51C831.616 251.73 827.885 257.18 823.449 260.412C811.281 269.299 798.985 278.456 785.522 285.035C736.108 309.184 683.885 321.867 628.559 319.956C624.662 319.828 620.777 319.341 616.892 318.969C613.545 318.648 610.211 318.225 605.326 317.686C603.442 325.984 601.39 333.858 599.877 341.835C596.595 359.187 587.03 370.306 570.016 376.346C535.038 388.747 498.919 393.339 462.16 393.903C344.803 395.673 232.241 373.294 124.885 325.638C99.409 314.326 74.74 301.117 53.571 282.803C41.519 272.377 31.108 259.937 20.645 247.831C15.119 241.444 15.837 231.967 20.645 226.247C25.389 220.591 33.954 218.616 42.019 223.413C55.405 231.377 68.072 240.559 81.061 249.177C90.754 255.603 100.934 260.886 113.795 260.335C110.499 258.065 107.294 255.654 103.883 253.551C71.432 233.519 44.532 207.651 22.825 176.372C13.298 162.65 5.913 147.94 1.746 131.602C-3.498 111.031 2.772 101.374 24.633 98.527C24.722 88.408 17.337 78.174 24.607 67.902C31.197 58.578 39.442 53.949 50.545 56.924C53.828 52.346 56.379 48.268 59.418 44.613C66.662 35.905 80.471 35.404 87.651 46.6C108.32 78.828 137.22 102.759 169.941 122.137C178.121 126.985 186.647 131.512 198.251 131.525C192.802 119.906 187.673 110.031 183.48 99.758C177.954 86.228 172.608 72.57 168.223 58.643C164.479 46.729 169.312 36.661 179.518 31.672C189.712 26.697 201.379 28.53 208.265 38.11C220.791 55.513 232.857 73.288 244.14 91.525C264.103 123.791 263.68 124.292 299.093 137.321C365.369 161.714 433.016 167.382 501.932 150.364C547.219 139.181 586.107 117.264 616.007 80.598C632.97 59.81 650.087 39.111 667.96 19.104C673.922 12.436 682.039 7.30601 689.962 2.90701C697.566 -1.31199 706.028 -1.261 713.067 5.203C719.863 11.435 722.26 21.567 717.67 30.775C713.58 38.983 708.131 46.626 702.515 53.936C693.001 66.312 682.808 78.162 673.076 90.371C669.82 94.462 667.127 99.002 664.191 103.336C664.755 104.516 665.319 105.683 665.883 106.863L665.909 106.85ZM136.681 216.744C125.488 218.86 120.346 212.833 114.923 208.716C85.023 186.016 61.354 157.636 40.762 126.459C36.788 120.431 32.185 114.468 26.697 109.864C18.35 102.875 8.952 106.825 7.554 117.661C6.951 122.304 7.439 127.677 9.259 131.948C14.786 144.901 19.901 158.328 27.53 170.05C49.443 203.714 78.33 230.402 113.192 250.498C115.718 251.96 119.192 252.832 120.552 255.013C122.398 257.975 123.872 262.258 123.103 265.388C122.577 267.517 118 269.774 115.128 269.928C110.922 270.146 106.499 268.914 102.396 267.594C82.984 261.361 67.457 248.421 50.827 237.366C45.993 234.16 41.07 230.53 35.659 228.889C27.774 226.516 21.991 233.031 24.838 240.726C26.312 244.702 29.197 248.28 31.928 251.665C53.892 278.956 82.792 297.218 113.743 312.069C227.728 366.74 348.38 390.248 474.391 386.503C506.625 385.541 538.474 380.501 569.016 368.959C582.209 363.97 589.992 355.07 592.633 341.579C595.249 328.19 598.723 314.775 599.377 301.258C600.198 284.317 599.595 267.119 597.608 250.28C596.21 238.482 592.236 237.02 581.568 241.252C560.374 249.652 538.346 252.948 515.703 253.243C457.89 253.987 403.398 240.021 351.97 214.538C316.403 196.917 287.439 170.806 265.27 137.796C250.589 115.93 237.101 93.269 222.804 71.147C216.458 61.323 209.855 51.615 202.597 42.471C197.007 35.43 190.443 34.545 183.083 38.11C175.826 41.624 173.261 47.049 175.108 56.45C176.044 61.208 177.429 65.978 179.339 70.428C186.814 87.921 194.712 105.221 202.149 122.74C204.046 127.216 204.803 132.179 206.188 137.347C190.007 141.169 178.095 135.269 166.812 128.626C133.194 108.838 104.089 83.933 82.022 51.371C76.394 43.061 68.855 42.522 63.739 50.986C61.354 54.949 60.585 61.592 62.174 65.863C65.2 73.968 69.803 81.714 74.919 88.768C98.293 121.034 126.155 148.889 158.683 171.999C162.363 174.615 165.851 177.488 170.761 181.271C161.299 184.99 157.17 179.617 152.862 176.526C118.423 151.852 89.203 121.945 65.034 87.139C60.867 81.15 57.2 74.789 52.827 68.966C47.34 61.669 40.762 61.426 34.159 67.62C28.992 72.468 27.402 78.457 29.53 84.984C31.941 92.384 34.39 99.925 38.095 106.709C60.161 147.107 89.023 181.682 126.834 208.408C129.706 210.434 132.245 212.948 136.72 216.757L136.681 216.744ZM693.001 157.43C692.834 156.315 692.681 155.199 692.514 154.07C696.001 152.57 699.476 151.031 702.976 149.556C742.57 132.91 777.932 109.672 808.563 79.662C815.641 72.724 820.602 63.285 825.257 54.334C827.654 49.742 827.27 43.356 821.782 39.944C815.756 36.187 811.166 39.201 806.319 43.574C797.305 51.705 788.433 60.553 777.983 66.414C753.34 80.226 727.966 92.756 702.54 105.119C694.745 108.902 685.898 110.595 677.448 112.929C674.205 113.827 670.691 114.199 667.319 114.122C657.254 113.929 653.882 108.902 658.165 99.976C660.46 95.193 663.588 90.691 666.909 86.51C677.833 72.75 689.206 59.348 699.989 45.472C704.438 39.739 708.387 33.455 711.49 26.902C714.157 21.272 712.888 15.244 708.31 10.692C703.938 6.34399 698.373 6.10001 693.45 9.12701C686.513 13.397 678.949 17.501 673.666 23.465C655.857 43.535 638.688 64.196 621.713 84.984C589.094 124.907 546.449 147.915 496.932 158.982C426.195 174.795 357.265 167.357 289.99 141.451C285.336 139.655 280.617 138.027 275.925 136.321C276.732 141.733 278.425 145.324 281.117 147.863C297.042 162.906 311.71 179.861 329.571 192.172C380.716 227.427 438.991 242.663 500.407 246.202C528.396 247.818 555.873 244.253 582.158 233.211C592.941 228.684 598.775 231.556 602.852 242.419C605.044 248.254 606.378 254.705 606.57 260.925C607.083 276.879 606.737 292.858 606.737 310.44C616.456 311.454 625.559 313.249 634.637 313.223C691.373 313.044 744.801 299.488 794.549 272.146C803.037 267.478 810.845 261.412 818.487 255.397C821.795 252.794 824.808 248.998 826.244 245.112C827.424 241.919 827.424 236.532 825.462 234.404C822.974 231.71 817.769 229.851 814.102 230.364C809.576 230.992 805.216 234.083 801.165 236.686C779.971 250.332 756.802 253.525 732.364 249.96C727.709 249.28 722.555 248.575 721.401 242.624C722.183 241.547 722.568 240.393 723.324 240.046C727.312 238.264 731.376 236.648 735.428 235.019C773.585 219.796 807.665 198.148 835.771 168.165C845.951 157.302 853.747 144.016 861.44 131.114C865.658 124.048 862.696 116.212 856.631 111.659C850.772 107.261 842.835 107.633 836.386 112.814C834.501 114.327 832.937 116.263 831.257 118.033C809.255 141.156 784.42 160.829 757.52 177.86C746.814 184.631 735.595 190.62 724.389 196.558C722.081 197.776 718.837 197.225 715.157 197.571C716.234 194.84 716.324 193.583 716.952 193.185C720.657 190.877 724.44 188.658 728.286 186.593C765.136 166.831 798.626 142.528 827.026 111.749C835.219 102.862 842.079 92.589 848.554 82.33C853.452 74.558 851.682 68.466 845.387 64.721C839.258 61.079 832.475 62.58 827.257 68.492C819.846 76.879 812.948 85.869 804.678 93.307C780.24 115.289 753.083 133.474 723.683 148.184C716.285 151.877 708.503 154.865 700.72 157.674C698.463 158.482 695.578 157.546 692.976 157.405L693.001 157.43Z" fill="black"/>
</svg>
