<svg width="584" height="705" viewBox="0 0 584 705" fill="none" xmlns="http://www.w3.org/2000/svg">
<path d="M203.223 183.542C193.635 165.974 179.74 149.155 190.858 130.232C185.46 120.605 180.413 113.375 177.168 105.414C172.734 94.54 173.757 83.948 181.075 73.834C183.959 69.849 184.622 63.983 185.441 58.838C189.894 31.028 209.82 8.16902 235.388 1.95202C265.371 -5.33598 297.361 8.09103 310.096 37.089C316.342 51.315 327.421 58.019 338.529 64.567C346.129 69.05 351.927 74.224 357.442 80.548C367.362 91.938 371.98 105.414 373.432 120.167C372.877 127.709 376.385 133.896 382.202 138.749C396.223 150.451 410.352 162.017 424.14 173.993C431.458 180.346 438.025 187.547 445.129 194.163C451.258 199.873 457.757 205.193 463.925 210.864C471.418 217.753 479.72 224.067 485.878 232.028C494.716 243.458 494.424 257.09 485.937 268.149C476.709 280.183 479.652 291.145 484.797 302.604C490.224 314.687 500.981 319.773 513.288 322.268C513.727 322.355 514.175 322.375 514.613 322.404C542.666 324.285 560.196 340.431 571.48 364.723C582.461 388.352 585.248 413.569 583.533 439.138C581.204 473.826 571.743 506.596 553.658 536.568C544.372 551.954 533.117 565.703 518.745 576.655C506.467 586.009 492.913 591.875 477.245 593.483C469.995 594.224 462.025 596.523 456.188 600.664C447.253 606.998 437.714 614.228 432.208 623.358C407.731 663.942 371.191 685.71 326.086 695.542C269.385 707.898 212.987 707.732 156.852 692.19C126.743 683.859 101.798 667.664 81.637 643.821C51.45 608.128 32.031 566.892 18.983 522.439C-1.167 453.773 -6.47799 384.269 8.89801 313.907C11.159 303.549 14.94 293.445 18.837 283.555C22.774 273.557 31.3 267.438 40.138 262.098C57.852 251.399 77.379 245.241 97.306 240.243C99.898 239.59 102.519 239.102 105.14 238.557C115.917 236.335 125.086 233.626 133.008 223.473C140.501 213.865 153.412 208.087 164.627 201.861C176.554 195.245 189.289 190.09 203.223 183.571V183.542ZM478.346 306.999C467.218 319.354 454.96 328.231 440.607 333.279C423.429 339.32 406.133 345.614 388.37 349.298C299.202 367.763 209.596 368.162 120.204 351.49C83.128 344.572 45.75 336.426 18.369 305.917C17.551 307.691 16.888 308.763 16.557 309.922C15.709 312.914 14.891 315.924 14.257 318.974C1.09299 382.155 5.166 444.721 21.371 506.761C33.414 552.88 52.132 595.861 81.725 633.736C102.49 660.308 128.818 678.207 161.46 686.695C223.306 702.772 284.898 701.574 346.09 683.352C367.274 677.048 386.431 666.856 402.099 650.817C417.524 635.022 429.382 616.703 438.99 597.03C476.758 519.75 492.894 438.076 487.252 352.25C486.278 337.391 484.241 322.502 478.356 306.989L478.346 306.999ZM341.033 201.218C337.145 207.113 335.07 213.622 330.656 216.35C317.19 224.672 311.567 237.816 305 251.01C302.047 256.934 296.201 262.274 290.384 265.674C284.869 268.9 277.414 268.627 271.276 271.053C265.332 273.401 259.973 277.221 254.077 280.563C247.033 271.375 248.017 263.112 253.376 254.225C259.563 243.955 258.297 239.443 247.91 233.831C242.073 230.684 235.642 228.628 229.503 226.026C216.505 220.53 206.809 212.102 204.159 197.408C203.876 195.839 202.941 194.377 202.083 192.331C181.202 199.62 162.201 209.14 144.486 221.154C133.407 228.667 127.892 239.102 128.224 252.89C128.526 265.333 127.853 277.815 127.308 290.268C127.201 292.714 125.719 295.111 124.872 297.528C124.034 297.391 123.186 297.255 122.348 297.118C121.666 292.344 120.984 287.569 120.175 281.976C103.035 299.691 104.77 315.252 124.423 326.039C139.381 334.243 155.585 337.244 173.884 336.621C169.343 329.624 160.954 325.668 164.657 316.022C173.426 318.604 178.094 334.701 190.488 323.632C191.686 313.001 188.442 303.491 183.57 294.293C177.411 282.688 174.196 270.264 174.352 257.109C174.381 255.014 175.911 252.929 177.606 248.71C179.165 252.52 180.257 253.991 180.305 255.492C180.783 269.553 184.749 282.522 191.141 295.033C193.908 300.451 195.613 306.726 196.373 312.787C197.504 321.781 202.161 327.724 209.986 331.067C216.066 333.668 222.507 335.705 228.987 337.01C252.333 341.727 276.002 341.278 299.514 339.164C317.141 337.576 335.021 336.211 351.459 328.153C361.856 323.057 370.519 317.337 371.815 304.222C372.955 292.665 379.922 285.669 394.82 290.346C404.964 293.523 414.932 293.153 424.803 288.963C436.72 283.906 448.958 280.593 462.005 279.063C480.694 276.87 491.608 252.247 481.084 236.725C476.427 229.865 470.483 223.015 463.516 218.796C451.745 211.654 442.732 202.221 434.41 191.698C432.101 188.784 429.324 186.241 427.638 184.458C420.447 190.061 415.146 195.761 408.608 198.84C401.807 202.036 393.807 202.699 384.414 204.92C387.961 207.99 389.656 209.88 391.722 211.176C404.915 219.4 419.872 221.407 434.829 224.145C446.473 226.279 457.728 230.752 468.972 234.698C471.106 235.448 472.402 238.586 475.822 242.727C471.223 242.094 469.284 242.376 468.076 241.568C457.406 234.367 445.168 231.093 432.841 230.138C412.662 228.579 394.791 221.524 377.875 211.196C366.553 204.277 354.285 201.091 341.043 201.237L341.033 201.218ZM547.188 419.036C546.876 412.01 547.48 405.16 546.087 398.739C543.943 388.858 541.117 378.988 537.268 369.653C534.598 363.183 528.713 359.422 520.996 360.757C509.975 362.667 495.866 378.773 495.476 390.086C493.868 437.413 486.794 483.843 473.045 529.221C470.005 539.258 472.295 546.488 479.613 551.379C485.654 555.413 493.264 555.286 500.299 548.388C507.802 541.021 514.896 532.651 520.002 523.521C538.155 491.064 546.018 455.712 547.188 419.045V419.036ZM467.004 549.615C460.69 564.758 454.444 579.734 447.799 595.666C455.818 592.723 462.59 588.387 469.606 587.978C501.498 586.107 523.578 568.714 540.698 543.974C570.281 501.256 581.662 453.656 575.504 402.13C573.321 383.85 567.426 366.564 556.113 351.607C547.48 340.197 536.479 332.626 522.038 330.043C511.651 328.192 501.439 325.347 490.37 322.755C492.027 337.585 493.761 353.059 495.681 370.169C500.631 365.979 503.827 362.978 507.315 360.367C521.619 349.648 536.031 352.172 543.943 368.094C548.201 376.659 551.056 386.471 552.079 395.991C556.863 440.512 547.967 482.742 528.07 522.634C523.938 530.907 518.608 538.839 512.567 545.835C496.811 564.056 485.547 564.806 467.004 549.615ZM458.049 286.127C459.482 300.373 452.31 308.529 442.206 314.521C435.726 318.36 429.002 322.346 421.86 324.402C403.083 329.819 384.238 335.617 365.013 338.784C287.47 351.539 209.762 350.828 132.17 338.784C108.823 335.159 85.662 330.141 64.205 319.91C55.923 315.963 47.904 310.555 41.317 304.212C33.063 296.271 33.229 286.186 41.317 278.04C46.841 272.476 53.516 267.087 60.717 264.33C77.272 258.006 94.47 253.348 111.405 247.999C114.533 247.005 117.642 245.933 120.76 244.9C120.526 244.013 120.302 243.117 120.068 242.23C114.991 243.185 109.866 243.965 104.838 245.144C83.089 250.211 61.711 256.466 42.554 268.344C16.635 284.412 16.158 302.341 42.233 317.717C55.494 325.532 70.217 331.476 84.97 336.085C126.47 349.064 169.421 353.712 212.704 355.69C269.434 358.272 325.823 355.612 381.598 344.26C404.779 339.544 427.677 333.59 448.529 322.092C456.188 317.873 463.282 312.105 469.43 305.859C474.936 300.275 476.923 292.938 471.321 285.065C467.179 285.396 463.292 285.708 458.03 286.137L458.049 286.127ZM352.336 83.325C341.861 72.294 336.6 68.699 323.124 61.946C321.623 61.196 319.85 62.151 319.596 63.807C318.612 70.238 321.243 73.99 326.066 77.897C336.502 86.355 338.958 103.3 332.673 114.525C327.518 123.743 317.706 126.471 303.256 123.032C300.225 122.311 296.99 122.437 293.823 122.233C293.356 123.278 292.891 124.324 292.43 125.37C299.787 132.269 307.767 138.641 318.037 140.288C327.713 141.838 336.005 145.696 342.894 152.195C355.834 164.405 368.278 177.13 381.081 189.486C383.527 191.844 386.44 194.514 389.559 195.245C401.787 198.129 413.5 191.084 418.761 178.007C415.176 175.006 411.444 171.888 407.712 168.77C398.825 161.355 390.085 153.764 381.023 146.563C371.269 138.817 366.787 129.131 366.465 116.532C366.29 109.789 362.996 103.095 360.95 96.44L352.327 83.315L352.336 83.325ZM120.506 253.183C100.443 256.846 81.881 261.036 64.673 269.523C58.398 272.622 52.454 276.714 47.095 281.226C42.993 284.685 40.352 289.654 43.207 295.472C48.293 305.859 58.525 309.62 67.85 314.648C74.456 318.204 78.578 313.099 83.596 310.906C89.267 308.421 94.948 305.966 98.144 304.582C104.156 294.293 107.644 284.675 114.192 278.088C121.598 270.634 122.465 263.355 120.497 253.183H120.506ZM380.516 202.348C371.211 183.026 335.489 151.065 324.449 150.977C329.837 165.058 335.323 179.391 340.478 192.848C353.535 195.946 366.28 198.967 380.516 202.348ZM311.723 73.142C314.393 40.811 289.029 8.78303 255.081 6.68803C221.805 4.63203 195.175 29.158 191.686 67.666C201.888 35.511 217.304 10.342 252.46 12.067C289.117 13.859 303.879 40.607 311.733 73.142H311.723ZM399.429 299.886C408.082 304.855 416.735 309.834 425.787 315.038C445.528 307.827 451.911 300.802 449.211 287.657C432.549 290.999 417.709 302.517 399.429 299.886ZM320.074 79.836C315.562 82.097 310.466 82.974 309.511 85.449C306.53 93.166 304.698 101.429 303.353 109.634C302.983 111.875 305.906 114.642 307.319 117.175C310.106 115.568 314.354 114.613 315.426 112.225C319.567 103.017 323.25 93.449 320.084 79.836H320.074ZM189.046 76.679C178.522 85.4 180.315 94.92 183.453 104.372C185.557 110.725 187.117 118.179 197.835 118.608C194.873 104.489 192.125 91.373 189.046 76.679ZM323.202 111.719C324.205 112.264 325.219 112.81 326.222 113.346C327.528 108.61 328.824 103.875 330.13 99.139C329.438 98.925 328.746 98.71 328.064 98.496C326.446 102.9 324.829 107.305 323.211 111.709L323.202 111.719Z" fill="black"/>
</svg>
