<svg width="528" height="861" viewBox="0 0 528 861" fill="none" xmlns="http://www.w3.org/2000/svg">
<path d="M30.77 659.323C31.154 655.421 31.137 653.317 31.599 651.327C32.822 646.019 37.509 644.71 41.402 648.481C41.595 648.673 41.839 648.865 41.926 649.101C45.907 659.401 55.989 662.046 64.238 667.083C71.911 671.762 79.183 677.095 86.856 681.766C89.501 683.372 92.914 684.856 95.838 684.638C109.692 683.625 123.51 682.045 137.329 680.552C139.991 680.264 142.601 679.479 145.403 678.885C145.517 677.13 145.761 675.786 145.674 674.477C143.073 637.299 146.573 600.347 150.143 563.431C153.295 530.836 157.886 498.415 165.874 466.615C168.318 456.89 172.403 447.585 175.485 438.009C176.366 435.276 177.117 432.125 176.637 429.401C172.988 408.844 177.065 388.688 179.081 368.375C181.386 345.12 188.849 323.131 194.235 300.618C196.636 290.571 197.552 280.139 200.241 270.188C204.204 255.54 207.591 240.499 219.044 229.125C224.246 223.957 229.222 218.458 231.16 211.012C229.327 208.795 227.555 206.656 225.015 203.583C227.537 203.138 228.742 202.736 229.947 202.745C234.049 202.78 235.717 200.336 236.441 196.757C237.899 189.538 235.874 183.305 231.204 177.762C228.218 174.218 225.285 170.639 222.431 166.99C218.022 161.351 216.285 154.874 217.071 147.803C217.682 142.321 217.254 137.075 215.735 131.706C213.265 122.968 214.801 114.396 218.415 106.182C219.515 103.685 220.833 101.293 221.994 98.823C225.469 91.438 226.813 84.027 224.081 75.882C220.467 65.093 223.775 55.665 230.785 47.006C237.279 38.975 243.669 30.787 249.352 22.171C261.555 3.67299 291.829 -5.53601 312.089 3.51599C314.542 4.60699 317.083 5.73398 319.693 6.21398C336.217 9.23398 346.692 19.753 353.824 34.043C359.655 45.731 362.143 58.179 360.493 71.343C359.393 80.072 360.354 88.671 362.134 97.321C363.488 103.929 364.317 110.904 363.784 117.591C362.571 132.797 357.508 145.9 339.552 150.561C350.909 163.079 352.288 178.294 353.58 193.457C354.226 201.052 354.243 208.707 354.418 216.345C354.924 237.601 356.478 258.909 355.57 280.104C354.427 306.746 353.362 333.475 347.469 359.75C343.96 375.402 341.629 391.368 339.561 407.29C338.373 416.438 337.937 425.857 338.635 435.041C339.831 450.762 345.383 464.607 359.097 474.13C362.85 476.74 366.185 480.145 369.144 483.663C388.488 506.673 405.589 531.299 421.057 557.05C438.621 586.293 455.529 615.929 468.938 647.329C475.013 661.566 479.535 676.484 484.336 691.228C485.907 696.047 486.527 701.354 481.909 705.955C470.614 700.202 458.951 696.457 444.88 697.068C449.436 707.884 458.506 716.456 452.02 729.628C457.52 727.446 461.326 725.849 465.21 724.434C468.798 723.125 471.164 724.068 473.084 727.795C479.5 740.261 487.548 751.059 499.9 758.863C511.685 766.309 520.571 777.168 528 789.642C525.015 792.68 522.335 795.299 519.786 798.04C503.619 815.411 487.461 832.791 471.347 850.206C466.651 855.278 460.854 858.01 454.037 858.351C440.681 859.023 427.325 859.651 413.96 860C406.532 860.193 405.022 858.351 403.852 851.219C402.106 840.595 405.895 832.39 414.475 826.471C419.6 822.936 425.108 819.846 430.729 817.175C438.167 813.648 442.863 808.358 444.722 800.24C445.421 797.211 445.002 794.993 443.125 792.733C437.041 785.409 431.41 777.648 424.811 770.813C420.551 766.405 417.731 762.616 422.218 756.759C414.388 754.481 409.046 756.017 403.625 761.717C393.787 772.07 381.496 778.609 366.831 779.176C347.216 779.944 333.014 770.499 322.469 754.708C320.208 751.312 318.767 747.331 316.271 744.145C312.281 739.047 307.987 734.115 303.299 729.655C301.283 727.734 298.07 726.695 295.216 726.102C290.266 725.08 288.433 726.756 287.22 731.706C285.675 738.026 284.077 744.346 282.13 750.544C281.31 753.163 281.214 755.24 283.038 757.335C287.324 762.267 291.532 767.269 295.862 772.175C298.926 775.649 302.129 779.001 305.289 782.38C310.614 788.08 311.854 794.993 310.178 802.195C307.009 815.839 301.51 828.61 293.793 840.316C289.9 846.217 277.434 848.286 271.568 844.41C268.94 842.673 267.779 840.098 269.08 837.374C270.198 835.043 272.066 831.866 274.126 831.412C287.019 828.549 284.933 816.703 288.485 808.34C289.655 805.582 287.429 803.775 285.072 802.64C277.26 798.878 269.412 795.177 261.355 791.353C254.694 804.046 241.88 809.79 230.855 817.62C227.756 819.82 224.438 821.81 221.017 823.468C217.49 825.171 216.277 827.693 216.914 831.377C217.097 832.451 217.184 833.542 217.342 834.616C218.625 843.328 216.32 846.426 207.242 847.081C195.545 847.928 183.83 848.46 172.115 848.94C157.397 849.543 142.68 850.163 127.962 850.346C120.909 850.433 113.838 849.656 106.802 849.028C104.681 848.836 102.534 848.059 100.552 847.186C93.813 844.227 91.631 840.08 92.809 832.844C94.416 822.953 100.063 816.668 109.709 813.945C116.265 812.094 122.829 810.244 129.35 808.279C131.087 807.756 132.694 806.804 135.033 805.748C126.976 794.74 125.457 779.935 111.822 773.441C105.964 776.409 100.351 779.761 94.363 782.161C87.825 784.78 81.034 787.015 74.164 788.525C63.898 790.777 56.897 796.154 53.824 806.368C52.646 810.278 51.511 814.233 49.922 817.986C47.487 823.722 42.948 825.773 37.404 824.097C32.568 822.63 29.644 818.187 30.866 812.548C32.586 804.587 34.62 796.643 37.221 788.935C39.84 781.184 45.025 775.344 52.611 771.721C57.281 769.495 61.916 767.095 66.246 764.284C73.841 759.36 74.068 756.375 68.978 748.981C66.08 744.765 63.68 740.165 61.393 735.564C58.564 729.908 55.273 726.023 47.984 725.561C39.508 725.028 31.39 724.138 22.992 726.948C11.086 730.938 5.429 723.692 0.715004 714.404C-0.358996 712.292 -0.157981 708.73 0.881019 706.504C3.16802 701.625 3.57801 696.667 3.96201 691.455C4.20701 688.103 5.71702 684.646 7.41102 681.652C9.27002 678.361 11.784 675.376 14.385 672.6C17.318 669.466 18.165 666.227 16.751 662.151C15.957 659.855 15.328 657.35 15.398 654.958C15.459 653.046 16.245 650.087 17.51 649.563C18.994 648.961 21.744 650.017 23.254 651.213C25.707 653.151 27.601 655.796 30.779 659.296L30.77 659.323ZM250.434 192.942C248.392 201.148 244.507 207.616 236.337 210.89C235.141 211.37 234.547 213.386 233.7 214.713C230.645 219.514 228.306 225.005 224.421 228.994C212.68 241.041 206.482 255.793 203.706 271.768C201.288 285.708 199.525 299.736 195.265 313.267C188.116 335.98 184.161 359.288 181.246 382.874C178.819 402.524 177.58 420.838 181.508 440.915C182.818 454.009 184.31 461.298 186.746 471.904C187.287 474.27 188.517 478.213 190.586 481.996C194.095 488.412 198.556 496.224 202.703 504.194C238.702 573.374 274.658 642.571 310.544 711.803C312.526 715.627 315.241 718.219 318.898 720.384C326.213 724.705 334.061 725.185 341.821 723.239C354.758 719.991 367.59 716.264 380.274 712.135C392.181 708.259 403.817 703.545 415.61 699.303C432.144 693.358 448.904 691.63 466.083 696.492C470.736 697.81 475.546 698.596 481.316 699.844C480.661 695.296 480.338 691.054 479.421 686.942C475.65 670.086 469.007 654.242 461.71 638.669C441.187 594.831 416.186 553.602 388.279 514.128C378.345 500.083 367.547 486.657 354.234 475.606C340.887 464.519 335.493 449.348 334.419 433.181C332.944 410.808 335.606 388.348 341.228 366.681C349.206 335.928 350.158 304.651 350.132 273.339C350.097 244.192 348.473 215.045 347.181 185.915C346.692 174.872 343.436 164.65 336.401 155.616C332.787 150.98 328.719 149.156 323.202 149.025C313.809 148.789 305.481 152.141 297.773 156.908C285.998 164.188 277.181 173.842 275.103 188.281C274.676 191.24 273.899 194.156 273.314 197.089C271.498 206.115 266.584 212.4 257.523 215.062C253.638 216.206 250.74 218.397 249.465 222.465C249.125 223.547 248.208 224.455 247.143 226.061C243.276 218.851 244.952 212.976 248.924 207.834C252.486 203.225 253.018 198.607 250.408 192.96L250.434 192.942ZM178.418 446.293C177.606 446.162 176.803 446.022 175.991 445.891C173.73 453.617 171.006 461.229 169.287 469.067C153.993 538.657 147.725 609.129 149.157 680.325C149.192 681.888 149.663 683.433 149.969 685.222C171.495 691.481 192.795 697.67 215.412 704.244C202.929 617.204 190.665 531.753 178.409 446.293H178.418ZM190.246 488.935C189.67 489.031 189.094 489.136 188.517 489.232C199.516 566.277 210.515 643.322 221.619 721.091C248.112 706.609 275.915 705.78 305.455 710.372C266.584 635.657 228.419 562.296 190.246 488.935ZM427.028 766.597C428.573 769.609 430.686 768.727 433.051 767.339C438.961 763.873 445.43 763.21 452.055 764.17C455.547 764.677 459.143 765.48 460.077 770.124C458.043 773.903 454.429 773.476 450.894 773.502C446.163 773.537 441.213 773.1 436.508 779.097C439.668 778.076 441.082 777.648 442.479 777.159C449.471 774.706 456.428 775.169 463.342 777.474C466.869 778.652 469.819 780.625 470.683 784.466C470.998 785.845 470.762 787.713 469.994 788.839C469.54 789.503 467.48 789.52 466.319 789.188C462.923 788.219 459.676 786.639 456.254 785.854C452.369 784.963 448.249 784.056 443.946 788.054C446.311 788.752 447.935 789.293 449.585 789.703C453.801 790.768 458.104 791.545 462.216 792.898C464.477 793.649 466.624 795.107 468.457 796.669C471.015 798.86 471.792 801.863 469.627 804.674C467.358 807.633 464.564 807.092 461.727 805.058C459.091 803.164 456.367 801.348 453.487 799.882C452.378 799.314 450.728 799.786 447.289 799.786C450.117 801.994 451.488 802.736 452.404 803.845C455.145 807.171 458.166 810.401 460.173 814.154C461.544 816.712 461.587 820.623 458.026 821.757C456.69 822.185 454.176 819.706 452.544 818.187C450.99 816.729 450.091 814.547 448.502 813.159C447.542 812.321 445.805 812.391 442.558 811.605C445.613 815.883 447.708 818.562 449.515 821.417C451.165 824.036 452.535 827.231 449.532 829.5C446.067 832.119 444.225 829.064 442.54 826.471C441.947 825.563 441.388 824.551 440.576 823.879C437.285 821.146 433.758 819.837 428.172 822.918C436.089 828.147 440.052 835.008 441.336 843.092C450.536 844.288 456.734 840.298 462.199 834.546C478.356 817.541 494.532 800.554 510.672 783.532C512.095 782.03 513.274 780.311 514.548 778.722C508.769 770.953 502.083 765.078 494.488 760.102C488.072 755.895 482.328 750.945 478.496 744.04C476.445 740.348 473.905 736.926 471.495 733.242C464.136 739.65 457.685 745.943 450.527 751.303C443.212 756.785 435.208 761.342 427.037 766.606L427.028 766.597ZM279.948 56.756C274.379 46.709 269.15 37.255 263.939 27.854C254.249 32.602 246.34 45.635 246.035 56.477C246.62 66.14 245.258 70.374 245.258 70.374C234.984 105.466 251.857 130.955 271.097 136.699C281.746 128.066 289.28 116.788 295.748 104.785C298.76 99.189 299.694 92.896 298.655 86.523C298.096 83.093 299.737 79.147 296.735 75.743C296.735 75.743 285.675 66.14 279.948 56.756ZM212.488 831.098C212.488 819.06 211.702 808.655 212.715 798.424C213.71 788.394 216.538 778.539 218.703 767.906C201.515 773.746 185.899 770.22 170.282 762.712C170.107 765.427 170.003 766.937 169.889 768.797C178.444 770.036 184.249 774.619 188.238 781.62C189.923 784.579 190.7 787.696 189.059 790.969C187.653 793.763 185.314 794.356 183.219 792.052C181.228 789.852 179.806 787.146 178.025 784.745C175.947 781.952 173.8 779.15 168.562 780.258C170.046 782.004 170.841 783.287 171.958 784.178C176.864 788.097 179.509 793.448 181.42 799.175C182.765 803.208 181.001 807.241 177.789 807.878C174.001 808.62 173.695 805.373 172.438 803.016C170.666 799.698 168.807 796.329 166.397 793.483C164.363 791.083 162.164 791.755 160.924 794.985C162.12 796.844 163.621 798.529 164.372 800.51C165.516 803.504 166.799 806.726 166.712 809.807C166.659 811.535 164.215 813.805 162.329 814.599C161.439 814.975 158.925 812.723 157.869 811.169C156.219 808.733 155.433 805.704 153.801 803.251C152.23 800.886 150.231 801.165 148.555 803.775C149.864 807.206 151.575 810.619 152.457 814.242C153.635 819.078 152.073 823.014 149.253 823.224C144.592 823.564 144.635 819.531 143.649 816.572C142.68 813.648 142.331 810.27 138.28 809.301C138.752 813.351 139.441 817.009 139.441 820.666C139.441 821.775 137.704 823.355 136.43 823.826C135.539 824.158 133.654 823.285 132.982 822.386C131.55 820.439 130.825 817.986 129.437 816.005C128.041 814.006 126.173 812.382 124.008 814.172C126.539 820.893 128.879 827.126 131.62 834.406C158.087 834.947 185.366 834.319 212.479 831.107L212.488 831.098ZM378.258 717.643C389.684 729.288 400.186 740.296 411.15 750.823C412.808 752.421 416.911 752.726 419.408 752.002C432.877 748.073 442.898 739.658 449.218 727.097C451.226 723.099 451.933 718.638 449.812 714.492C446.861 708.73 443.465 703.196 440.209 697.452C418.369 701.206 398.894 709.534 378.275 717.643H378.258ZM162.967 693.332C164.128 706.007 164.966 717.355 166.38 728.633C166.659 730.877 168.737 733.478 170.727 734.831C177.859 739.667 186.047 742.059 194.567 742.46C200.188 742.731 205.932 742.033 211.519 741.169C215.744 740.514 217.743 737.537 218.005 733.042C218.494 724.592 218.04 716.316 215.561 708.119C198.294 703.266 181.316 698.491 162.967 693.341V693.332ZM398.501 744.346C391.587 737.397 384.377 730.431 377.524 723.134C374.486 719.904 371.484 719.232 367.363 720.454C360.345 722.549 353.248 724.434 346.099 726.041C340.18 727.376 334.14 728.188 327.671 729.305C328.204 731.191 328.309 733.216 329.277 734.674C332.865 740.086 336.313 745.682 340.582 750.526C357.988 770.289 384.089 767.688 398.492 744.337L398.501 744.346ZM517.708 781.917C516.111 783.287 515.229 783.925 514.478 784.693C497.997 801.732 481.08 818.379 465.271 836.021C458.209 843.904 450.274 847.151 440.34 847.535C430.546 847.91 420.752 848.399 410.957 848.906C409.945 848.958 408.958 849.421 407.501 849.822C407.71 852.074 407.894 854.099 408.103 856.334C422.227 855.592 435.81 854.099 449.349 854.422C458.89 854.649 465.297 850.861 471.294 844.305C486.195 828.025 501.358 811.981 516.39 795.823C518.398 793.667 520.266 791.379 522.396 788.927C520.825 786.587 519.506 784.614 517.699 781.917H517.708ZM97.576 832.73C95.681 840.447 96.362 842.542 103.188 844.166C109.482 845.658 116.082 846.828 122.498 846.662C147.769 846.007 173.032 844.794 198.285 843.72C201.803 843.572 205.339 843.197 208.813 842.603C211.947 842.07 214.33 840.543 213.928 836.379C212.802 836.178 211.79 835.794 210.795 835.838C192.603 836.676 174.42 838.116 156.228 838.291C136.543 838.483 116.527 840.761 97.576 832.721V832.73ZM210.952 745.83C197.605 747.384 185.654 745.629 172.744 740.077C173.73 747.497 174.358 753.355 175.397 759.142C175.633 760.425 177.117 762.014 178.391 762.494C187.871 766.038 197.57 768.09 208.438 766.3C209.276 759.456 210.053 753.128 210.943 745.83H210.952ZM436.019 843.869C436.447 836.126 432.903 831.491 428.041 827.72C426.688 826.672 424.488 825.991 422.821 826.209C415.759 827.143 407.885 837.348 407.946 845.929C417.112 845.257 426.225 844.585 436.019 843.869ZM164.66 762.808C161.072 763.76 157.441 764.598 153.888 765.698C149.951 766.92 148.153 769.932 148.808 773.834C149.943 780.625 151.75 787.251 155.215 793.378C165.28 787.111 168.431 776.889 164.66 762.808ZM127.089 833.699C125.239 828.453 124.121 824.018 122.061 820.064C121.127 818.266 118.29 816.328 116.37 816.38C110.591 816.537 105.126 818.292 101.189 823.032C98.649 826.087 98.789 828.61 102.22 830.321C109.613 833.996 117.487 834.886 127.081 833.708L127.089 833.699ZM452.273 733.286C442.977 741.177 434.431 748.423 425.928 755.633C430.022 759.998 430.171 760.268 433.392 758.487C442.139 753.66 450.292 747.995 457.319 740.514C455.355 737.686 453.67 735.276 452.282 733.277L452.273 733.286ZM220.24 778.076C218.232 786.526 214.766 793.588 217.158 803.016C222.116 798.616 228.437 798.31 228.89 791.1C229.283 784.928 225.818 781.76 220.24 778.067V778.076ZM439.747 784.143C445.726 783.27 449.882 782.074 453.984 782.231C458.139 782.388 462.233 783.89 467.096 784.972C459.78 777.788 448.965 777.177 439.747 784.152V784.143ZM433.051 772.018C433.208 772.611 433.357 773.214 433.514 773.807C439.939 772.175 446.372 770.534 452.797 768.901C445.43 766.911 438.507 766.632 433.051 772.018ZM185.218 788.35C184.371 778.286 178.269 773.135 169.261 773.624C169.941 778.932 175.781 775.964 177.833 779.115C179.971 782.406 182.73 785.286 185.226 788.35H185.218ZM468.073 729.541C467.742 728.982 467.401 728.424 467.069 727.865C463.272 729.052 459.475 730.239 454.744 731.723C456.821 734.63 458.113 736.429 460.042 739.135C463.133 735.442 465.603 732.492 468.073 729.55V729.541ZM165.263 786.046C168.327 789.773 170.552 792.139 172.359 794.784C174.158 797.42 175.528 800.336 177.091 803.138C176.907 793.78 173.599 788.822 165.263 786.046ZM449.864 795.028C452.806 796.128 455.852 797.027 458.663 798.389C461.299 799.672 463.691 801.444 467.663 803.923C464.145 796.416 460.156 794.47 449.864 795.028ZM211.79 764.938C215.91 764.109 219.393 763.062 219.62 759.413C219.829 756.131 216.809 755.45 213.344 755.563C212.829 758.697 212.357 761.508 211.79 764.938ZM163.01 812.129C164.625 804.945 161.884 801.069 157.895 797.394C156.69 799.338 158.395 804.249 163.01 812.129ZM20.216 691.839C17.24 688.679 16.655 688.775 14.411 692.119C14.045 692.669 14.438 693.428 15.101 693.428H19.544C20.365 693.428 20.784 692.442 20.216 691.839ZM455.346 813.622C452.71 809.368 449.765 807.217 446.512 807.171C449.576 809.405 451.977 811.16 455.346 813.622ZM143.361 807.398C145.019 810.601 146.687 813.805 148.345 817.009C148.441 812.819 147.525 809.187 143.361 807.398Z" fill="black"/>
<path d="M339.229 232.058C339.08 233.917 339.185 235.829 338.757 237.619C334.401 255.915 330.517 274.343 325.358 292.413C321.91 304.485 315.852 315.528 306.346 324.353C304.032 326.5 302.26 329.451 300.855 332.332C293.199 348.009 285.57 363.565 273.803 376.886C268.033 383.415 264.017 391.56 269.682 400.865C270.695 402.533 270.643 405.125 270.416 407.22C269.377 416.988 265.754 426.11 259.155 433.042C254.912 437.502 250.548 441.605 247.248 446.895C245.066 450.378 240.98 451.216 237.052 451.033C223.557 450.413 212.305 445.044 203.602 434.63C202.572 433.399 201.62 431.915 201.192 430.397C196.985 415.321 194.157 400.054 200.058 384.856C206.159 369.161 212.794 353.666 219.445 338.198C221.252 333.999 223.426 329.957 226.071 326.221C231.5 318.565 234.53 310.142 234.853 300.924C235.298 288.1 239.025 276.665 245.528 265.422C251.892 254.423 255.943 242.097 260.936 230.312C262.184 227.353 263.135 224.272 264.227 221.251C264.768 221.4 265.309 221.548 265.85 221.696C264.681 226.585 264.122 231.726 262.228 236.318C257.138 248.635 252.032 261.004 245.904 272.815C236.328 291.269 236.424 309.199 246.436 327.26C246.899 328.098 247.353 328.945 247.842 329.887C248.636 331.415 246.585 332.873 245.459 331.572C243.381 329.18 241.522 325.226 236.86 315.336C230.147 328.517 221.75 340.109 216.914 353.692C214.915 359.305 212.785 365.023 209.703 370.077C204.92 377.933 205.705 385.24 210.62 392.232C213.073 395.724 216.277 399.023 219.838 401.328C232.705 409.638 246.358 410.319 260.438 404.383C263.869 402.943 265.553 400.909 265.169 396.92C264.131 386.06 267.203 376.877 275.086 368.724C280.594 363.024 284.321 355.613 289.882 347.433C286.364 347.948 283.562 349.528 280.873 350.183C278.63 350.724 277.486 347.573 279.538 346.508C282.305 345.076 284.95 343.723 287.647 342.493C291.357 340.799 293.828 338.11 295.268 334.392C297.669 328.185 301.597 323.271 306.276 318.452C314.141 310.342 319.186 300.243 322.102 289.287C325.882 275.067 329.26 260.743 332.961 246.496C334.244 241.564 335.964 236.737 337.483 231.866C338.059 231.936 338.635 232.006 339.211 232.076L339.229 232.058ZM203.436 387.038C200.162 395.523 199.595 404.034 200.669 412.641C201.201 416.927 203.96 419.93 207.373 422.47C220.825 432.483 236.118 434.726 252.294 433.303C253.559 433.19 255.27 432.797 255.925 431.907C261.398 424.522 266.261 416.814 266.828 406.173C254.642 411.733 242.857 413.855 230.505 410.433C217.9 406.941 208.935 399.355 203.427 387.038H203.436ZM203.96 425.779C208.019 438.672 227.546 449.348 239.994 446.485C244.359 445.481 246.218 442.81 246.454 437.686C231.16 437.432 216.687 434.735 203.96 425.779Z" fill="black"/>
<path d="M263.345 83.817C263.258 84.087 263.145 84.349 263.04 84.62C263.022 84.672 262.996 84.724 262.979 84.777C262.9 84.969 263.057 84.593 262.979 84.794C262.918 84.943 262.848 85.1 262.778 85.248C262.612 85.624 262.429 85.999 262.237 86.366C261.783 87.247 261.276 88.103 260.709 88.923C260.177 89.691 259.504 90.329 258.92 91.044C256.659 93.803 259.496 96.64 261.739 98.185C262.446 98.674 263.197 99.128 263.974 99.503C264.628 99.826 265.432 99.678 265.824 99.014C266.174 98.421 265.999 97.487 265.336 97.164C264.777 96.893 264.236 96.579 263.712 96.247C262.743 95.636 261.844 94.999 261.207 94.161C261.268 94.248 261.102 93.995 261.067 93.951C260.997 93.838 260.927 93.716 260.866 93.593C260.753 93.375 260.892 93.742 260.84 93.506C260.814 93.375 260.788 93.052 260.788 93.349C260.788 93.27 260.823 92.947 260.788 93.113C260.744 93.349 260.945 92.747 260.788 93.096C260.84 92.991 260.901 92.886 260.971 92.782C260.857 92.947 261.189 92.563 261.259 92.494C262.603 91.088 263.694 89.456 264.576 87.727C265.1 86.706 265.589 85.632 265.955 84.541C266.514 82.891 263.904 82.175 263.345 83.825V83.817Z" fill="black"/>
<path d="M246.219 68.418C246.568 68.304 246.917 68.226 247.266 68.138C247.65 68.051 248.034 67.973 248.418 67.911C248.549 67.894 248.672 67.868 248.803 67.85C248.855 67.85 249.169 67.798 249.03 67.815C248.89 67.833 249.213 67.798 249.274 67.789C249.422 67.772 249.571 67.754 249.71 67.746C252.146 67.527 254.555 67.676 256.624 68.811C257.995 69.561 258.998 70.661 259.723 72.084C260.517 73.629 262.848 72.267 262.054 70.722C259.19 65.127 252.6 64.298 247.013 65.432C246.507 65.537 245.992 65.651 245.494 65.808C243.844 66.331 244.551 68.942 246.21 68.418H246.219Z" fill="black"/>
<path d="M280.821 72.05C282.331 71.063 283.649 70.557 285.403 70.147C286.722 69.832 288.144 69.71 289.515 69.981C291.252 70.33 292.684 71.22 293.88 72.512C295.076 73.804 296.979 71.875 295.791 70.601C293.007 67.598 289.096 66.646 285.159 67.441C283.186 67.833 281.152 68.61 279.459 69.719C278.01 70.67 279.363 73.01 280.821 72.05Z" fill="black"/>
<path d="M280.001 61.488C281.511 60.501 282.83 59.995 284.584 59.585C285.902 59.27 287.325 59.148 288.696 59.419C290.433 59.768 291.864 60.658 293.06 61.95C294.256 63.242 296.159 61.313 294.972 60.039C292.187 57.036 288.277 56.084 284.34 56.879C282.367 57.271 280.333 58.048 278.64 59.157C277.19 60.108 278.543 62.448 280.001 61.488Z" fill="black"/>
<path d="M245.459 62.491C245.581 62.421 245.703 62.36 245.825 62.298C245.965 62.229 246.113 62.159 246.262 62.089C246.366 62.045 246.471 61.993 246.576 61.949C246.244 62.098 246.532 61.967 246.611 61.932C247.763 61.478 248.959 61.12 250.181 60.911C251.403 60.701 252.992 60.727 254.293 61.085C255.995 61.548 257.339 62.587 258.439 63.94C258.902 64.507 259.871 64.42 260.351 63.94C260.909 63.381 260.813 62.595 260.351 62.028C257.802 58.877 253.952 57.689 250.015 58.222C247.981 58.501 245.886 59.13 244.088 60.142C242.569 60.998 243.931 63.329 245.45 62.473L245.459 62.491Z" fill="black"/>
<path d="M259.322 112.719C259.4 112.676 259.488 112.641 259.566 112.606C259.811 112.493 259.304 112.711 259.653 112.571C259.767 112.527 259.88 112.475 260.003 112.431C260.753 112.143 261.53 111.908 262.307 111.716C263.259 111.489 264.21 111.349 265.188 111.34C266.358 111.332 267.379 111.593 268.496 111.899C271.656 112.746 275.375 111.908 278.09 110.127C279.539 109.175 278.186 106.827 276.728 107.796C275.82 108.39 274.799 108.817 273.76 109.123C272.8 109.402 271.831 109.559 270.827 109.533C269.648 109.498 268.592 109.036 267.449 108.844C264.28 108.302 260.832 108.992 257.951 110.397C256.389 111.157 257.759 113.496 259.313 112.728L259.322 112.719Z" fill="black"/>
<path d="M263.485 116.299C264.864 118.359 267.579 118.883 269.866 118.411C271.219 118.132 272.511 117.503 273.68 116.788C274.283 116.421 274.562 115.557 274.169 114.937C273.776 114.317 272.965 114.055 272.319 114.448C271.961 114.666 271.603 114.876 271.236 115.059C271.07 115.147 270.896 115.225 270.721 115.304C270.468 115.417 270.826 115.269 270.555 115.374C270.005 115.574 269.464 115.731 268.897 115.845C268.74 115.871 268.766 115.871 268.958 115.845C268.897 115.845 268.827 115.862 268.766 115.862C268.644 115.871 268.521 115.88 268.39 115.889C268.19 115.889 267.989 115.889 267.788 115.871C267.404 115.845 267.98 115.923 267.753 115.871C267.666 115.854 267.579 115.845 267.491 115.819C267.317 115.784 267.151 115.731 266.976 115.679C266.906 115.653 266.802 115.592 266.732 115.583C266.994 115.583 266.985 115.697 266.828 115.618C266.688 115.548 266.549 115.478 266.418 115.4C266.313 115.339 266.217 115.26 266.121 115.199C265.946 115.085 266.426 115.461 266.208 115.269C266.165 115.234 266.121 115.199 266.077 115.155C265.955 115.051 265.85 114.928 265.737 114.806C265.553 114.605 265.972 115.147 265.833 114.928C265.44 114.343 264.619 114.029 263.982 114.439C263.397 114.815 263.074 115.662 263.493 116.29L263.485 116.299Z" fill="black"/>
<path d="M257.889 80.411C260.377 80.411 262.393 77.723 262.393 74.406C262.393 71.089 260.377 68.4 257.889 68.4C255.401 68.4 253.385 71.089 253.385 74.406C253.385 77.723 255.401 80.411 257.889 80.411Z" fill="black"/>
<path d="M257.89 80.831C255.175 80.831 252.975 77.95 252.975 74.415C252.975 70.879 255.184 67.999 257.89 67.999C260.596 67.999 262.804 70.879 262.804 74.415C262.804 77.95 260.596 80.831 257.89 80.831ZM257.89 68.819C255.629 68.819 253.796 71.333 253.796 74.415C253.796 77.496 255.638 80.01 257.89 80.01C260.142 80.01 261.984 77.496 261.984 74.415C261.984 71.333 260.142 68.819 257.89 68.819Z" fill="black"/>
<path d="M292.431 81.923C294.919 81.923 296.935 79.234 296.935 75.917C296.935 72.6 294.919 69.911 292.431 69.911C289.943 69.911 287.927 72.6 287.927 75.917C287.927 79.234 289.943 81.923 292.431 81.923Z" fill="black"/>
<path d="M292.432 82.333C289.717 82.333 287.517 79.452 287.517 75.917C287.517 72.381 289.726 69.501 292.432 69.501C295.138 69.501 297.346 72.381 297.346 75.917C297.346 79.452 295.138 82.333 292.432 82.333ZM292.432 70.321C290.171 70.321 288.338 72.835 288.338 75.917C288.338 78.998 290.18 81.512 292.432 81.512C294.684 81.512 296.526 78.998 296.526 75.917C296.526 72.835 294.684 70.321 292.432 70.321Z" fill="black"/>
</svg>
