<svg width="1080" height="1080" viewBox="0 0 1080 1080" fill="none" xmlns="http://www.w3.org/2000/svg">
<path d="M220.891 539.71L221.378 537.296H229.822C232.881 537.296 235.375 537.018 237.302 536.452C239.229 535.886 240.838 534.724 242.13 532.955C243.411 531.187 244.385 528.455 245.03 524.75L275.924 382.589C276.242 380.503 276.49 378.844 276.649 377.642C276.808 376.43 276.888 375.506 276.888 374.871C276.888 372.934 276.163 371.612 274.712 370.887C273.262 370.162 271.096 369.804 268.196 369.804H257.09L257.577 367.391H287.745L326.357 527.651L355.801 390.556C356.447 386.692 356.884 383.801 357.132 381.864C357.37 379.937 357.5 378.407 357.5 377.275C357.5 374.374 356.615 372.407 354.847 371.364C353.079 370.321 350.417 369.795 346.88 369.795H338.675L339.162 367.381H384.539L384.052 369.795H375.36C372.142 369.795 369.529 370.242 367.513 371.126C365.496 372.01 363.847 373.897 362.566 376.798C361.274 379.698 359.913 384.198 358.463 390.318L326.357 539.72H320.805L280.255 373.182L248.636 521.373C248.308 523.946 247.991 526.042 247.673 527.651C247.345 529.26 247.186 530.631 247.186 531.753C247.186 533.681 247.991 535.091 249.6 535.975C251.209 536.859 253.623 537.296 256.841 537.296H266.01L265.524 539.71H220.872H220.891Z" fill="black"/>
<path d="M442.453 539.71C428.615 539.71 417.231 536.253 408.301 529.329C399.37 522.415 392.734 512.313 388.393 499.042C384.052 485.77 381.877 469.717 381.877 450.893C381.877 430.777 384.37 414.208 389.357 401.175C394.344 388.142 401.347 378.447 410.357 372.089C419.367 365.731 430.145 362.553 442.701 362.553C451.87 362.553 459.191 364.003 464.664 366.894C470.128 369.794 474.161 373.331 476.734 377.513C479.307 381.695 480.598 386.046 480.598 390.546C480.598 394.082 479.754 396.864 478.065 398.87C476.376 400.887 474.32 401.89 471.906 401.89C471.906 394.172 471.062 387.576 469.373 382.102C467.684 376.639 464.784 372.407 460.681 369.437C456.578 366.467 450.668 364.967 442.939 364.967C431.992 364.967 422.744 368.066 415.185 374.254C407.615 380.453 401.824 389.91 397.811 402.615C393.787 415.33 391.781 431.423 391.781 450.883C391.781 470.343 393.47 486.237 396.847 499.032C400.224 511.826 405.658 521.392 413.138 527.75C420.618 534.107 430.473 537.286 442.701 537.286C448.333 537.286 453.519 536.849 458.267 535.955C463.015 535.071 466.919 533.581 469.969 531.485V479.84C469.969 474.376 469.641 470.343 469.005 467.77C468.36 465.197 466.949 463.469 464.784 462.575C462.608 461.691 459.429 461.254 455.247 461.254H452.595V458.84H493.383V461.254H492.171C488.793 461.254 486.22 461.701 484.452 462.575C482.684 463.459 481.472 465.227 480.836 467.889C480.191 470.542 479.873 474.684 479.873 480.317V530.273C474.399 533.492 468.727 535.866 462.856 537.396C456.986 538.925 450.191 539.69 442.463 539.69L442.453 539.71Z" fill="black"/>
<path d="M507.13 539.71V537.296H511.471C515.495 537.296 518.425 536.809 520.283 535.846C522.13 534.882 523.382 532.955 524.028 530.055C524.673 527.154 524.991 522.654 524.991 516.535V390.546C524.991 384.437 524.663 379.927 524.028 377.026C523.382 374.125 522.14 372.198 520.283 371.235C518.435 370.271 515.495 369.784 511.471 369.784H507.13V367.37H593.534L594.745 407.433H592.332L591.845 392.225C591.686 385.629 591.12 380.721 590.156 377.503C589.193 374.284 587.295 372.198 584.484 371.225C581.663 370.261 577.362 369.774 571.57 369.774H534.647V447.972H581.226V450.386H534.647L534.408 537.276H578.097C583.729 537.276 587.832 536.839 590.404 535.955C592.977 535.071 594.746 533.343 595.719 530.76C596.683 528.187 597.249 524.323 597.408 519.177L598.61 499.628H601.024L599.822 539.69H507.14L507.13 539.71ZM548.405 351.208C550.978 346.539 553.272 342.159 555.279 338.056C557.286 333.954 559.143 329.97 560.832 326.106C562.521 322.242 564.17 318.546 565.779 315H575.673V317.414C574.55 319.51 572.901 322.043 570.726 325.013C568.55 327.993 566.256 331.132 563.852 334.43C561.438 337.728 559.024 341.026 556.61 344.324C554.196 347.622 551.862 350.722 549.607 353.622H548.405V351.208Z" fill="black"/>
<path d="M621.05 539.71V537.296H625.639C629.662 537.296 632.593 536.809 634.451 535.846C636.298 534.882 637.55 532.955 638.196 530.055C638.831 527.154 639.159 522.654 639.159 516.535V390.546C639.159 384.437 638.831 379.927 638.196 377.026C637.55 374.125 636.298 372.198 634.451 371.235C632.603 370.271 629.662 369.784 625.639 369.784H621.05V367.37H667.629V369.784H662.315C658.45 369.784 655.56 370.271 653.623 371.235C651.695 372.198 650.404 374.135 649.758 377.026C649.113 379.927 648.795 384.427 648.795 390.546V537.286H694.649C699.317 537.286 702.854 536.73 705.268 535.598C707.682 534.475 709.331 532.548 710.215 529.806C711.099 527.074 711.546 523.379 711.546 518.7L712.509 489.734H714.923L713.721 539.69H621.04L621.05 539.71Z" fill="black"/>
<path d="M734.981 539.71V537.296H740.534C744.398 537.296 747.209 536.81 748.977 535.846C750.746 534.883 751.958 532.955 752.593 530.055C753.239 527.154 753.557 522.734 753.557 516.783V390.308C753.557 384.357 753.229 379.927 752.593 377.036C751.948 374.136 750.746 372.208 748.977 371.245C747.209 370.281 744.388 369.795 740.534 369.795H734.981V367.381H781.56V369.795H776.245C772.381 369.795 769.52 370.281 767.673 371.245C765.825 372.208 764.613 374.145 764.057 377.036C763.491 379.937 763.212 384.437 763.212 390.556V516.783C763.212 522.744 763.491 527.164 764.057 530.055C764.623 532.955 765.825 534.883 767.673 535.846C769.52 536.81 772.381 537.296 776.245 537.296H781.56V539.71H734.981Z" fill="black"/>
<path d="M856.38 539.71C845.115 539.71 835.539 536.005 827.662 528.604C819.775 521.203 813.824 510.823 809.801 497.472C805.778 484.121 803.771 468.505 803.771 450.644C803.771 432.784 805.778 417.019 809.801 403.817C813.824 390.625 819.894 380.443 828.02 373.281C836.145 366.119 846.079 362.543 857.831 362.543C865.231 362.543 871.589 363.834 876.893 366.407C882.208 368.98 886.34 372.357 889.32 376.539C892.291 380.731 893.781 385.152 893.781 389.81C893.781 393.675 892.936 396.655 891.248 398.741C889.559 400.837 887.503 401.88 885.089 401.88C885.089 393.834 884.205 387.079 882.436 381.605C880.668 376.142 877.807 371.989 873.874 369.178C869.93 366.367 864.744 364.956 858.307 364.956C847.847 364.956 839.324 368.493 832.728 375.576C826.132 382.658 821.344 392.632 818.364 405.506C815.384 418.38 813.904 433.419 813.904 450.644C813.904 467.869 815.434 483.227 818.493 496.26C821.543 509.293 826.371 519.395 832.977 526.548C839.572 533.71 847.937 537.286 858.079 537.286C866.93 537.286 873.725 534.634 878.473 529.319C883.221 524.005 886.479 517.17 888.248 508.806C890.016 509.293 891.218 510.177 891.863 511.458C892.499 512.75 892.827 514.031 892.827 515.323C892.827 517.896 892.022 520.597 890.413 523.409C888.804 526.22 886.43 528.882 883.291 531.376C880.152 533.869 876.327 535.885 871.827 537.405C867.317 538.935 862.172 539.7 856.38 539.7V539.71Z" fill="black"/>
<path d="M902.721 539.71V537.296H908.999C911.731 537.296 913.906 536.81 915.515 535.846C917.125 534.883 918.535 532.955 919.737 530.055C920.949 527.154 922.27 522.893 923.721 517.26L962.581 367.381H968.859L1013.02 528.366C1013.67 530.939 1014.43 532.836 1015.32 534.038C1016.2 535.25 1017.41 536.094 1018.93 536.571C1020.46 537.058 1022.59 537.296 1025.33 537.296H1027.02V539.71H985.747V537.296H991.061C996.207 537.296 999.505 536.78 1000.95 535.727C1002.41 534.684 1003.13 532.955 1003.13 530.542C1003.13 529.737 1002.92 528.495 1002.52 526.796C1002.12 525.108 1001.64 523.26 1001.07 521.244C1000.51 519.237 999.991 517.34 999.505 515.571L989.372 477.198H936.754L927.823 510.744C927.336 512.999 926.77 515.492 926.134 518.224C925.489 520.965 924.922 523.409 924.446 525.585C923.959 527.76 923.721 529.568 923.721 531.018C923.721 533.114 924.565 534.684 926.254 535.727C927.942 536.78 931.201 537.296 936.028 537.296H943.747V539.71H902.721ZM937.479 474.784H988.647L973.925 419.026C971.998 411.307 970.339 404.87 968.978 399.715C967.608 394.569 966.445 390.099 965.482 386.314C964.518 382.539 963.634 378.953 962.829 375.576C962.343 377.99 961.866 380.205 961.379 382.212C960.892 384.228 960.376 386.314 959.81 388.49C959.243 390.665 958.608 393.159 957.882 395.97C957.157 398.781 956.313 402.049 955.349 405.745L937.489 474.774L937.479 474.784Z" fill="black"/>
<path d="M380.784 763.625L381.271 761.211H388.026C391.086 761.211 393.619 760.814 395.625 760.009C397.632 759.205 399.241 757.675 400.453 755.42C401.655 753.165 402.658 749.956 403.473 745.764L432.916 607.954C433.075 606.186 433.274 604.497 433.522 602.888C433.761 601.279 433.88 600.077 433.88 599.272C433.88 597.017 433.075 595.537 431.466 594.802C429.857 594.077 427.522 593.719 424.463 593.719H416.983L417.221 591.305H463.562C475.79 591.305 485.078 594.524 491.436 600.961C497.793 607.398 500.972 616.646 500.972 628.716C500.972 634.835 500.048 640.904 498.201 646.934C496.353 652.964 493.651 658.606 490.115 663.831C486.568 669.056 482.108 673.368 476.714 676.745C471.32 680.122 465.012 682.219 457.77 683.023L470.078 738.781C471.36 744.413 472.532 748.883 473.575 752.172C474.618 755.47 475.989 757.804 477.678 759.175C479.366 760.546 481.581 761.221 484.313 761.221H487.214L486.727 763.635H481.661C477.479 763.635 474.062 763.118 471.399 762.066C468.747 761.022 466.651 758.926 465.121 755.787C463.592 752.648 462.102 747.86 460.661 741.423L448.353 683.5H426.877L413.357 746.251C412.87 747.86 412.552 749.271 412.393 750.473C412.234 751.685 412.155 752.768 412.155 753.731C412.155 755.986 412.92 757.794 414.45 759.165C415.979 760.536 418.751 761.211 422.774 761.211H432.668L432.181 763.625H380.774H380.784ZM446.913 681.076C455.277 681.076 462.797 678.861 469.482 674.44C476.158 670.02 481.393 663.941 485.168 656.222C488.942 648.504 490.84 639.325 490.84 628.706C490.84 621.464 489.876 615.275 487.939 610.12C486.012 604.974 482.913 600.951 478.641 598.05C474.38 595.15 468.946 593.709 462.35 593.709H445.939L427.353 681.086H446.903L446.913 681.076Z" fill="black"/>
<path d="M506.048 763.625V761.212H512.326C515.058 761.212 517.234 760.725 518.843 759.761C520.452 758.798 521.863 756.871 523.065 753.97C524.277 751.069 525.598 746.808 527.048 741.175L565.909 591.296H572.187L616.352 752.281C616.998 754.854 617.763 756.751 618.647 757.953C619.531 759.165 620.733 760.01 622.263 760.486C623.792 760.973 625.918 761.212 628.66 761.212H630.349V763.625H589.074V761.212H594.389C599.534 761.212 602.832 760.695 604.283 759.642C605.733 758.599 606.458 756.871 606.458 754.457C606.458 753.652 606.25 752.41 605.852 750.712C605.445 749.023 604.968 747.175 604.402 745.159C603.836 743.152 603.319 741.255 602.832 739.487L592.7 701.113H540.081L531.151 734.659C530.664 736.914 530.098 739.407 529.462 742.139C528.816 744.881 528.25 747.324 527.773 749.5C527.287 751.675 527.048 753.483 527.048 754.933C527.048 757.029 527.893 758.599 529.581 759.642C531.27 760.695 534.528 761.212 539.356 761.212H547.074V763.625H506.048ZM540.806 698.699H591.975L577.253 642.941C575.326 635.223 573.667 628.786 572.306 623.63C570.935 618.484 569.773 614.014 568.809 610.229C567.846 606.455 566.962 602.868 566.157 599.491C565.67 601.905 565.194 604.12 564.707 606.127C564.22 608.143 563.704 610.229 563.137 612.405C562.571 614.58 561.935 617.074 561.21 619.885C560.485 622.696 559.641 625.964 558.677 629.66L540.816 698.689L540.806 698.699Z" fill="black"/>
<path d="M641.443 763.625V761.211H646.51C650.533 761.211 653.513 760.724 655.44 759.761C657.367 758.797 658.579 756.87 659.056 753.97C659.543 751.069 659.781 746.569 659.781 740.45V614.222C659.781 608.272 659.543 603.842 659.056 600.951C658.569 598.05 657.367 596.123 655.44 595.16C653.513 594.196 650.533 593.709 646.51 593.709H641.443V591.295H667.996L743.542 752.519V614.461C743.542 608.352 743.214 603.842 742.578 600.941C741.933 598.04 740.681 596.113 738.833 595.15C736.986 594.186 734.125 593.699 730.27 593.699H722.542V591.286H764.542V593.699H758.989C755.125 593.699 752.234 594.186 750.297 595.15C748.37 596.113 747.158 598.05 746.681 600.941C746.194 603.842 745.956 608.342 745.956 614.461V763.625H738.476L662.205 601.189V740.46C662.205 746.579 662.483 751.079 663.049 753.98C663.615 756.88 664.857 758.807 666.784 759.771C668.711 760.734 671.612 761.221 675.476 761.221H683.195V763.635H641.443V763.625Z" fill="black"/>
<path d="M844.905 763.625C831.068 763.625 819.684 760.168 810.753 753.245C801.823 746.331 795.187 736.228 790.846 722.957C786.505 709.685 784.33 693.632 784.33 674.808C784.33 654.692 786.823 638.123 791.81 625.09C796.796 612.057 803.8 602.362 812.809 596.004C821.819 589.647 832.597 586.468 845.154 586.468C854.322 586.468 861.643 587.918 867.117 590.809C872.58 593.709 876.614 597.246 879.186 601.428C881.759 605.61 883.051 609.961 883.051 614.461C883.051 617.997 882.206 620.779 880.518 622.785C878.829 624.802 876.773 625.805 874.359 625.805C874.359 618.087 873.514 611.491 871.826 606.017C870.137 600.554 867.236 596.322 863.134 593.352C859.031 590.382 853.12 588.882 845.392 588.882C834.445 588.882 825.197 591.981 817.637 598.17C810.068 604.368 804.276 613.825 800.263 626.53C796.24 639.246 794.233 655.338 794.233 674.798C794.233 694.258 795.922 710.152 799.3 722.947C802.677 735.741 808.111 745.308 815.591 751.665C823.071 758.023 832.925 761.201 845.154 761.201C850.786 761.201 855.971 760.764 860.72 759.87C865.468 758.986 869.372 757.496 872.422 755.4V703.755C872.422 698.291 872.094 694.258 871.458 691.685C870.812 689.113 869.402 687.384 867.236 686.49C865.061 685.606 861.882 685.169 857.7 685.169H855.048V682.755H895.835V685.169H894.623C891.246 685.169 888.673 685.616 886.905 686.49C885.137 687.374 883.925 689.142 883.289 691.805C882.643 694.457 882.325 698.599 882.325 704.232V754.188C876.852 757.407 871.18 759.781 865.309 761.311C859.438 762.84 852.644 763.605 844.915 763.605L844.905 763.625Z" fill="black"/>
<path d="M966.783 763.625C954.555 763.625 944.373 759.92 936.247 752.519C928.121 745.118 922.042 734.738 918.029 721.387C914.006 708.036 911.999 692.42 911.999 674.559C911.999 655.576 914.006 639.523 918.029 626.411C922.052 613.298 928.171 603.325 936.376 596.481C944.582 589.646 954.803 586.219 967.032 586.219C979.26 586.219 989.641 589.398 997.687 595.756C1005.73 602.113 1011.76 611.848 1015.79 624.961C1019.81 638.073 1021.82 654.692 1021.82 674.798C1021.82 693.463 1019.68 709.437 1015.42 722.708C1011.16 735.979 1004.92 746.122 996.714 753.125C988.508 760.118 978.525 763.625 966.783 763.625ZM966.783 761.211C974.343 761.211 980.939 759.324 986.571 755.539C992.204 751.764 996.912 746.211 1000.69 738.89C1004.46 731.569 1007.28 722.559 1009.13 711.86C1010.98 701.162 1011.9 688.814 1011.9 674.818C1011.9 660.821 1011.1 647.987 1009.49 637.288C1007.88 626.59 1005.31 617.62 1001.77 610.378C998.233 603.136 993.604 597.712 987.892 594.087C982.181 590.471 975.217 588.653 967.012 588.653C959.293 588.653 952.568 590.461 946.856 594.087C941.145 597.712 936.436 603.136 932.741 610.378C929.035 617.62 926.304 626.59 924.535 637.288C922.767 647.987 921.883 660.503 921.883 674.818C921.883 689.132 922.807 700.685 924.655 711.384C926.502 722.082 929.323 731.092 933.098 738.413C936.873 745.734 941.542 751.367 947.095 755.31C952.648 759.254 959.204 761.221 966.763 761.221L966.783 761.211Z" fill="black"/>
<path d="M337.989 591.326C341.138 591.326 343.761 593.75 343.999 596.899L354.936 740.053C355.423 746.669 355.979 751.467 356.625 754.447C357.271 757.427 358.274 759.364 359.645 760.248C361.016 761.132 362.824 760.894 365.089 760.894H367.502L366.777 763.318H325.91L326.635 760.894H332.923C337.433 760.894 340.622 760.815 342.479 759.275C344.327 757.745 345.261 754.556 345.261 749.719C345.261 747.941 345.221 746.331 345.142 744.881C345.062 743.431 344.943 741.742 344.784 739.805L338.258 647.422C337.93 642.584 337.572 637.19 337.175 631.22C336.768 625.259 336.489 619.329 336.331 613.448C336.172 607.568 336.003 602.611 335.844 598.578C335.844 597.952 335.317 597.465 334.701 597.515C331.354 597.803 320.735 602.77 304.036 648.256C318.549 647.948 333.499 651.097 347.804 657.822C384.638 675.137 406.721 711.206 405.449 751.934L402.767 751.854C404.009 712.209 382.512 677.103 346.662 660.256C332.397 653.551 317.516 650.491 303.043 650.978C300.549 657.892 297.947 665.66 295.215 674.372C271.324 750.841 251.219 766 234.361 766C232.126 766 229.951 765.732 227.825 765.305C221.01 763.944 215.706 757.964 213.282 748.914C208.027 729.375 216.53 697.477 247.374 670.269C262.632 656.799 281.447 649.388 301.145 648.345C316.205 607.041 327.341 596.114 332.804 592.935C334.374 592.021 335.695 591.664 336.4 591.495C336.867 591.376 337.344 591.316 337.821 591.316H337.999L337.989 591.326ZM299.953 651.355C281.298 652.577 263.536 659.719 249.063 672.484C219.153 698.878 210.828 729.563 215.855 748.258C218.01 756.275 222.55 761.53 228.312 762.682C245.249 766.07 266.109 758.162 292.483 673.766C295.066 665.491 297.559 658.051 299.953 651.355Z" fill="black"/>
<path d="M179.419 367.181C182.577 367.181 185.2 369.615 185.438 372.764L196.405 516.206C196.892 522.832 197.458 527.64 198.104 530.63C198.75 533.62 199.763 535.557 201.134 536.441C202.504 537.326 204.322 537.097 206.587 537.097H209.011L208.286 539.521H167.339L168.064 537.097H174.362C178.882 537.097 182.071 537.018 183.938 535.478C185.796 533.948 186.72 530.749 186.72 525.912C186.72 524.134 186.68 522.514 186.601 521.064C186.521 519.614 186.392 517.915 186.233 515.978L179.687 423.416C179.359 418.568 179.001 413.154 178.594 407.184C178.187 401.214 177.909 395.274 177.75 389.373C177.591 383.482 177.422 378.516 177.263 374.473C177.263 373.847 176.736 373.35 176.111 373.41C172.753 373.698 162.114 378.675 145.386 424.25C159.929 423.942 174.909 427.101 189.243 433.836C226.147 451.19 248.279 487.319 246.997 528.137L244.305 528.057C245.547 488.333 224.011 453.167 188.091 436.28C173.806 429.555 158.886 426.495 144.382 426.982C141.889 433.906 139.277 441.694 136.545 450.426C112.605 527.044 92.459 542.233 75.5718 542.233C73.3268 542.233 71.1513 541.965 69.0255 541.537C62.201 540.167 56.8865 534.186 54.4527 525.117C49.1879 505.538 57.711 473.581 88.6147 446.313C103.903 432.823 122.747 425.393 142.485 424.35C157.574 382.966 168.73 372.019 174.213 368.82C175.783 367.906 177.114 367.549 177.819 367.37C178.286 367.251 178.763 367.191 179.25 367.191H179.429L179.419 367.181ZM141.492 427.091C122.757 428.323 104.926 435.495 90.3928 448.31C60.3534 474.813 52.0091 505.617 57.0554 524.392C59.2209 532.438 63.7805 537.713 69.5619 538.875C86.5684 542.272 107.509 534.335 133.992 449.591C136.585 441.277 139.088 433.806 141.492 427.091Z" fill="black"/>
</svg>
