<svg width="1131" height="527" viewBox="0 0 1131 527" fill="none" xmlns="http://www.w3.org/2000/svg">
<path d="M220.891 239.5L221.378 237.189H229.822C232.881 237.189 235.375 236.923 237.302 236.381C239.229 235.839 240.838 234.726 242.13 233.033C243.411 231.34 244.385 228.724 245.03 225.177L275.924 89.0713C276.242 87.0741 276.49 85.4858 276.649 84.335C276.808 83.1746 276.888 82.29 276.888 81.682C276.888 79.8275 276.163 78.5618 274.712 77.8677C273.262 77.1736 271.096 76.8308 268.196 76.8308H257.09L257.577 74.5206H287.745L326.357 227.955L355.801 96.699C356.447 92.9995 356.884 90.2317 357.132 88.3772C357.37 86.5323 357.5 85.0674 357.5 83.9836C357.5 81.2062 356.615 79.323 354.847 78.3244C353.079 77.3258 350.417 76.8222 346.88 76.8222H338.675L339.162 74.511H384.539L384.052 76.8222H375.36C372.142 76.8222 369.529 77.2502 367.513 78.0965C365.496 78.9429 363.847 80.7495 362.566 83.5269C361.274 86.3034 359.913 90.6117 358.463 96.4711L326.357 239.51H320.805L280.255 80.065L248.636 221.944C248.308 224.408 247.991 226.414 247.673 227.955C247.345 229.495 247.186 230.808 247.186 231.882C247.186 233.728 247.991 235.078 249.6 235.924C251.209 236.771 253.623 237.189 256.841 237.189H266.01L265.524 239.5H220.872H220.891Z" fill="black"/>
<path d="M442.453 239.5C428.615 239.5 417.231 236.19 408.301 229.561C399.37 222.942 392.734 213.27 388.393 200.564C384.052 187.858 381.877 172.488 381.877 154.466C381.877 135.207 384.37 119.344 389.357 106.866C394.344 94.3877 401.347 85.1057 410.357 79.0185C419.367 72.9313 430.145 69.8887 442.701 69.8887C451.87 69.8887 459.191 71.2769 464.664 74.0448C470.128 76.8213 474.161 80.2076 476.734 84.2115C479.307 88.2154 480.598 92.381 480.598 96.6894C480.598 100.075 479.754 102.738 478.065 104.659C476.376 106.59 474.32 107.55 471.906 107.55C471.906 100.161 471.062 93.8459 469.373 88.605C467.684 83.3747 464.784 79.323 460.681 76.4795C456.578 73.636 450.668 72.1999 442.939 72.1999C431.992 72.1999 422.744 75.1668 415.185 81.0913C407.615 87.0263 401.824 96.0804 397.811 108.244C393.787 120.418 391.781 135.825 391.781 154.456C391.781 173.088 393.47 188.305 396.847 200.555C400.224 212.804 405.658 221.962 413.138 228.049C420.618 234.136 430.473 237.179 442.701 237.179C448.333 237.179 453.519 236.761 458.267 235.905C463.015 235.059 466.919 233.632 469.969 231.625V182.18C469.969 176.949 469.641 173.088 469.005 170.624C468.36 168.161 466.949 166.506 464.784 165.65C462.608 164.804 459.429 164.386 455.247 164.386H452.595V162.075H493.383V164.386H492.171C488.793 164.386 486.22 164.814 484.452 165.65C482.684 166.497 481.472 168.19 480.836 170.738C480.191 173.278 479.873 177.244 479.873 182.637V230.465C474.399 233.547 468.727 235.82 462.856 237.285C456.986 238.749 450.191 239.481 442.463 239.481L442.453 239.5Z" fill="black"/>
<path d="M507.13 239.5V237.189H511.471C515.495 237.189 518.425 236.723 520.283 235.801C522.13 234.878 523.382 233.033 524.028 230.256C524.673 227.479 524.991 223.171 524.991 217.312V96.6894C524.991 90.8406 524.663 86.5227 524.028 83.7452C523.382 80.9678 522.14 79.1229 520.283 78.2009C518.435 77.2779 515.495 76.8117 511.471 76.8117H507.13V74.5005H593.534L594.745 112.857H592.332L591.845 98.2969C591.686 91.9818 591.12 87.2828 590.156 84.2019C589.193 81.12 587.295 79.1229 584.484 78.1913C581.663 77.2684 577.362 76.8021 571.57 76.8021H534.647V151.669H581.226V153.981H534.647L534.408 237.17H578.097C583.729 237.17 587.832 236.751 590.404 235.905C592.977 235.059 594.746 233.404 595.719 230.931C596.683 228.468 597.249 224.768 597.408 219.842L598.61 201.125H601.024L599.822 239.481H507.14L507.13 239.5ZM548.405 59.0269C550.978 54.5568 553.272 50.3633 555.279 46.4351C557.286 42.5078 559.143 38.6935 560.832 34.994C562.521 31.2946 564.17 27.7561 565.779 24.3611H575.673V26.6723C574.55 28.679 572.901 31.1041 570.726 33.9476C568.55 36.8007 566.256 39.806 563.852 42.9635C561.438 46.121 559.024 49.2786 556.61 52.4361C554.196 55.5936 551.862 58.5616 549.607 61.3381H548.405V59.0269Z" fill="black"/>
<path d="M621.05 239.5V237.189H625.639C629.662 237.189 632.593 236.723 634.451 235.801C636.298 234.878 637.55 233.033 638.196 230.256C638.831 227.479 639.159 223.171 639.159 217.312V96.6894C639.159 90.8406 638.831 86.5227 638.196 83.7453C637.55 80.9678 636.298 79.1229 634.451 78.2009C632.603 77.278 629.662 76.8117 625.639 76.8117H621.05V74.5005H667.629V76.8117H662.315C658.45 76.8117 655.56 77.278 653.623 78.2009C651.695 79.1229 650.404 80.9774 649.758 83.7453C649.113 86.5227 648.795 90.831 648.795 96.6894V237.179H694.649C699.317 237.179 702.854 236.647 705.268 235.563C707.682 234.488 709.331 232.643 710.215 230.018C711.099 227.402 711.546 223.865 711.546 219.385L712.509 191.653H714.923L713.721 239.481H621.04L621.05 239.5Z" fill="black"/>
<path d="M734.981 239.5V237.189H740.534C744.398 237.189 747.209 236.724 748.977 235.801C750.746 234.879 751.958 233.033 752.593 230.256C753.239 227.479 753.557 223.247 753.557 217.55V96.4615C753.557 90.764 753.229 86.5227 752.593 83.7548C751.948 80.9783 750.746 79.1324 748.977 78.2105C747.209 77.2875 744.388 76.8222 740.534 76.8222H734.981V74.511H781.56V76.8222H776.245C772.381 76.8222 769.52 77.2875 767.673 78.2105C765.825 79.1324 764.613 80.9869 764.057 83.7548C763.491 86.5323 763.212 90.8406 763.212 96.699V217.55C763.212 223.257 763.491 227.488 764.057 230.256C764.623 233.033 765.825 234.879 767.673 235.801C769.52 236.724 772.381 237.189 776.245 237.189H781.56V239.5H734.981Z" fill="black"/>
<path d="M856.38 239.5C845.115 239.5 835.539 235.953 827.662 228.867C819.775 221.781 813.824 211.843 809.801 199.061C805.778 186.279 803.771 171.328 803.771 154.228C803.771 137.128 805.778 122.035 809.801 109.395C813.824 96.765 819.894 87.0167 828.02 80.1597C836.145 73.3028 846.079 69.8791 857.831 69.8791C865.231 69.8791 871.589 71.1151 876.893 73.5785C882.208 76.0419 886.34 79.2751 889.32 83.279C892.291 87.2924 893.781 91.5251 893.781 95.9847C893.781 99.6851 892.936 102.538 891.248 104.535C889.559 106.542 887.503 107.541 885.089 107.541C885.089 99.8373 884.205 93.37 882.436 88.1292C880.668 82.8989 877.807 78.9228 873.874 76.2315C869.93 73.5402 864.744 72.1893 858.307 72.1893C847.847 72.1893 839.324 75.5757 832.728 82.357C826.132 89.1373 821.344 98.6865 818.364 111.012C815.384 123.338 813.904 137.736 813.904 154.228C813.904 170.719 815.434 185.423 818.493 197.901C821.543 210.379 826.371 220.05 832.977 226.899C839.572 233.756 847.937 237.179 858.079 237.179C866.93 237.179 873.725 234.64 878.473 229.552C883.221 224.464 886.479 217.92 888.248 209.912C890.016 210.379 891.218 211.225 891.863 212.451C892.499 213.688 892.827 214.915 892.827 216.152C892.827 218.615 892.022 221.201 890.413 223.893C888.804 226.585 886.43 229.133 883.291 231.521C880.152 233.908 876.327 235.838 871.827 237.293C867.317 238.758 862.172 239.491 856.38 239.491V239.5Z" fill="black"/>
<path d="M902.721 239.5V237.189H908.999C911.731 237.189 913.906 236.724 915.515 235.801C917.125 234.879 918.535 233.033 919.737 230.256C920.949 227.479 922.27 223.399 923.721 218.006L962.581 74.511H968.859L1013.02 228.639C1013.67 231.103 1014.43 232.919 1015.32 234.07C1016.2 235.23 1017.41 236.038 1018.93 236.495C1020.46 236.961 1022.59 237.189 1025.33 237.189H1027.02V239.5H985.747V237.189H991.061C996.207 237.189 999.505 236.695 1000.95 235.687C1002.41 234.688 1003.13 233.033 1003.13 230.723C1003.13 229.952 1002.92 228.763 1002.52 227.136C1002.12 225.52 1001.64 223.751 1001.07 221.821C1000.51 219.899 999.991 218.083 999.505 216.389L989.372 179.651H936.754L927.823 211.768C927.336 213.927 926.77 216.314 926.134 218.929C925.489 221.553 924.922 223.893 924.446 225.977C923.959 228.059 923.721 229.79 923.721 231.178C923.721 233.185 924.565 234.688 926.254 235.687C927.942 236.695 931.201 237.189 936.028 237.189H943.747V239.5H902.721ZM937.479 177.339H988.647L973.925 123.956C971.998 116.566 970.339 110.403 968.978 105.468C967.608 100.541 966.445 96.2614 965.482 92.6376C964.518 89.0234 963.634 85.5901 962.829 82.357C962.343 84.6682 961.866 86.7888 961.379 88.7104C960.892 90.6405 960.376 92.6376 959.81 94.7209C959.243 96.8033 958.608 99.1911 957.882 101.882C957.157 104.574 956.313 107.702 955.349 111.241L937.489 177.33L937.479 177.339Z" fill="black"/>
<path d="M380.784 453.878L381.271 451.567H388.026C391.086 451.567 393.619 451.187 395.625 450.416C397.632 449.646 399.241 448.181 400.453 446.022C401.655 443.864 402.658 440.791 403.473 436.778L432.916 304.837C433.075 303.145 433.274 301.528 433.522 299.987C433.761 298.447 433.88 297.296 433.88 296.525C433.88 294.366 433.075 292.949 431.466 292.246C429.857 291.552 427.522 291.209 424.463 291.209H416.983L417.221 288.898H463.562C475.79 288.898 485.078 291.979 491.436 298.142C497.793 304.305 500.972 313.159 500.972 324.715C500.972 330.574 500.048 336.384 498.201 342.157C496.353 347.93 493.651 353.332 490.115 358.335C486.568 363.337 482.108 367.465 476.714 370.698C471.32 373.932 465.012 375.939 457.77 376.709L470.078 430.092C471.36 435.484 472.532 439.764 473.575 442.913C474.618 446.07 475.989 448.305 477.678 449.618C479.366 450.93 481.581 451.576 484.313 451.576H487.214L486.727 453.888H481.661C477.479 453.888 474.062 453.393 471.399 452.385C468.747 451.386 466.651 449.379 465.121 446.374C463.592 443.369 462.102 438.784 460.661 432.622L448.353 377.166H426.877L413.357 437.244C412.87 438.784 412.552 440.135 412.393 441.286C412.234 442.447 412.155 443.483 412.155 444.405C412.155 446.564 412.92 448.295 414.45 449.608C415.979 450.921 418.751 451.567 422.774 451.567H432.668L432.181 453.878H380.774H380.784ZM446.913 374.845C455.277 374.845 462.797 372.724 469.482 368.492C476.158 364.26 481.393 358.44 485.168 351.05C488.942 343.66 490.84 334.872 490.84 324.706C490.84 317.772 489.876 311.847 487.939 306.911C486.012 301.984 482.913 298.133 478.641 295.355C474.38 292.579 468.946 291.199 462.35 291.199H445.939L427.353 374.855H446.903L446.913 374.845Z" fill="black"/>
<path d="M506.048 453.878V451.568H512.326C515.058 451.568 517.234 451.102 518.843 450.179C520.452 449.257 521.863 447.412 523.065 444.634C524.277 441.857 525.598 437.777 527.048 432.384L565.909 288.889H572.187L616.352 443.017C616.998 445.481 617.763 447.297 618.647 448.448C619.531 449.608 620.733 450.417 622.263 450.873C623.792 451.339 625.918 451.568 628.66 451.568H630.349V453.878H589.074V451.568H594.389C599.534 451.568 602.832 451.073 604.283 450.065C605.733 449.066 606.458 447.412 606.458 445.1C606.458 444.33 606.25 443.141 605.852 441.515C605.445 439.898 604.968 438.129 604.402 436.199C603.836 434.277 603.319 432.461 602.832 430.768L592.7 394.029H540.081L531.151 426.146C530.664 428.305 530.098 430.692 529.462 433.307C528.816 435.932 528.25 438.271 527.773 440.355C527.287 442.437 527.048 444.168 527.048 445.556C527.048 447.563 527.893 449.066 529.581 450.065C531.27 451.073 534.528 451.568 539.356 451.568H547.074V453.878H506.048ZM540.806 391.717H591.975L577.253 338.334C575.326 330.945 573.667 324.782 572.306 319.846C570.935 314.919 569.773 310.639 568.809 307.016C567.846 303.402 566.962 299.968 566.157 296.735C565.67 299.046 565.194 301.167 564.707 303.088C564.22 305.018 563.704 307.016 563.137 309.099C562.571 311.181 561.935 313.569 561.21 316.26C560.485 318.952 559.641 322.08 558.677 325.619L540.816 391.708L540.806 391.717Z" fill="black"/>
<path d="M641.443 453.878V451.567H646.51C650.533 451.567 653.513 451.101 655.44 450.179C657.367 449.256 658.579 447.411 659.056 444.634C659.543 441.857 659.781 437.548 659.781 431.69V310.838C659.781 305.142 659.543 300.901 659.056 298.133C658.569 295.355 657.367 293.51 655.44 292.588C653.513 291.665 650.533 291.199 646.51 291.199H641.443V288.888H667.996L743.542 443.245V311.067C743.542 305.218 743.214 300.901 742.578 298.123C741.933 295.346 740.681 293.501 738.833 292.579C736.986 291.656 734.125 291.19 730.27 291.19H722.542V288.879H764.542V291.19H758.989C755.125 291.19 752.234 291.656 750.297 292.579C748.37 293.501 747.158 295.355 746.681 298.123C746.194 300.901 745.956 305.209 745.956 311.067V453.878H738.476L662.205 298.361V431.7C662.205 437.558 662.483 441.866 663.049 444.644C663.615 447.42 664.857 449.265 666.784 450.188C668.711 451.11 671.612 451.576 675.476 451.576H683.195V453.888H641.443V453.878Z" fill="black"/>
<path d="M844.905 453.878C831.068 453.878 819.684 450.568 810.753 443.94C801.823 437.321 795.187 427.648 790.846 414.942C786.505 402.235 784.33 386.866 784.33 368.844C784.33 349.585 786.823 333.721 791.81 321.244C796.796 308.766 803.8 299.484 812.809 293.396C821.819 287.31 832.597 284.267 845.154 284.267C854.322 284.267 861.643 285.655 867.117 288.423C872.58 291.199 876.614 294.586 879.186 298.589C881.759 302.593 883.051 306.759 883.051 311.067C883.051 314.453 882.206 317.116 880.518 319.037C878.829 320.968 876.773 321.928 874.359 321.928C874.359 314.539 873.514 308.224 871.826 302.983C870.137 297.753 867.236 293.701 863.134 290.857C859.031 288.014 853.12 286.578 845.392 286.578C834.445 286.578 825.197 289.545 817.637 295.47C810.068 301.404 804.276 310.458 800.263 322.622C796.24 334.797 794.233 350.203 794.233 368.834C794.233 387.466 795.922 402.683 799.3 414.933C802.677 427.182 808.111 436.341 815.591 442.427C823.071 448.515 832.925 451.557 845.154 451.557C850.786 451.557 855.971 451.139 860.72 450.283C865.468 449.437 869.372 448.01 872.422 446.003V396.558C872.422 391.327 872.094 387.466 871.458 385.002C870.812 382.54 869.402 380.884 867.236 380.028C865.061 379.182 861.882 378.764 857.7 378.764H855.048V376.452H895.835V378.764H894.623C891.246 378.764 888.673 379.192 886.905 380.028C885.137 380.875 883.925 382.567 883.289 385.117C882.643 387.656 882.325 391.622 882.325 397.015V444.843C876.852 447.925 871.18 450.198 865.309 451.663C859.438 453.126 852.644 453.859 844.915 453.859L844.905 453.878Z" fill="black"/>
<path d="M966.783 453.878C954.555 453.878 944.373 450.331 936.247 443.245C928.121 436.159 922.042 426.221 918.029 413.439C914.006 400.657 911.999 385.706 911.999 368.606C911.999 350.431 914.006 335.062 918.029 322.508C922.052 309.954 928.171 300.406 936.376 293.853C944.582 287.309 954.803 284.028 967.032 284.028C979.26 284.028 989.641 287.072 997.687 293.159C1005.73 299.245 1011.76 308.566 1015.79 321.12C1019.81 333.674 1021.82 349.585 1021.82 368.834C1021.82 386.704 1019.68 401.998 1015.42 414.704C1011.16 427.41 1004.92 437.121 996.714 443.825C988.508 450.52 978.525 453.878 966.783 453.878ZM966.783 451.567C974.343 451.567 980.939 449.76 986.571 446.136C992.204 442.522 996.912 437.206 1000.69 430.197C1004.46 423.187 1007.28 414.561 1009.13 404.318C1010.98 394.075 1011.9 382.253 1011.9 368.854C1011.9 355.453 1011.1 343.165 1009.49 332.922C1007.88 322.68 1005.31 314.092 1001.77 307.158C998.233 300.225 993.604 295.032 987.892 291.561C982.181 288.099 975.217 286.359 967.012 286.359C959.293 286.359 952.568 288.09 946.856 291.561C941.145 295.032 936.436 300.225 932.741 307.158C929.035 314.092 926.304 322.68 924.535 332.922C922.767 343.165 921.883 355.148 921.883 368.854C921.883 382.558 922.807 393.619 924.655 403.862C926.502 414.104 929.323 422.731 933.098 429.74C936.873 436.749 941.542 442.142 947.095 445.917C952.648 449.693 959.204 451.576 966.763 451.576L966.783 451.567Z" fill="black"/>
<path d="M337.989 288.918C341.138 288.918 343.761 291.238 343.999 294.253L354.936 431.31C355.423 437.644 355.979 442.238 356.625 445.091C357.271 447.944 358.274 449.798 359.645 450.645C361.016 451.491 362.824 451.263 365.089 451.263H367.502L366.777 453.584H325.91L326.635 451.263H332.923C337.433 451.263 340.622 451.188 342.479 449.713C344.327 448.248 345.261 445.195 345.261 440.564C345.261 438.862 345.221 437.321 345.142 435.932C345.062 434.544 344.943 432.927 344.784 431.073L338.258 342.624C337.93 337.992 337.572 332.828 337.175 327.112C336.768 321.405 336.489 315.728 336.331 310.097C336.172 304.468 336.003 299.722 335.844 295.861C335.844 295.261 335.317 294.795 334.701 294.843C331.354 295.119 320.735 299.874 304.036 343.423C318.549 343.128 333.499 346.143 347.804 352.581C384.638 369.159 406.721 403.692 405.449 442.685L402.767 442.608C404.009 404.652 382.512 371.041 346.662 354.912C332.397 348.492 317.516 345.563 303.043 346.029C300.549 352.648 297.947 360.086 295.215 368.427C271.324 441.639 251.219 456.152 234.361 456.152C232.126 456.152 229.951 455.895 227.825 455.486C221.01 454.183 215.706 448.458 213.282 439.794C208.027 421.087 216.53 390.547 247.374 364.498C262.632 351.602 281.447 344.507 301.145 343.508C316.205 303.963 327.341 293.502 332.804 290.458C334.374 289.583 335.695 289.241 336.4 289.079C336.867 288.966 337.344 288.908 337.821 288.908H337.999L337.989 288.918ZM299.953 346.39C281.298 347.56 263.536 354.398 249.063 366.619C219.153 391.889 210.828 421.267 215.855 439.166C218.01 446.841 222.55 451.872 228.312 452.975C245.249 456.219 266.109 448.648 292.483 367.846C295.066 359.924 297.559 352.801 299.953 346.39Z" fill="black"/>
<path d="M179.419 74.3196C182.577 74.3196 185.2 76.65 185.438 79.6649L196.405 216.997C196.892 223.341 197.458 227.944 198.104 230.807C198.75 233.67 199.763 235.524 201.134 236.37C202.504 237.218 204.322 236.998 206.587 236.998H209.011L208.286 239.319H167.339L168.064 236.998H174.362C178.882 236.998 182.071 236.923 183.938 235.448C185.796 233.984 186.72 230.921 186.72 226.29C186.72 224.588 186.68 223.037 186.601 221.648C186.521 220.26 186.392 218.634 186.233 216.779L179.687 128.159C179.359 123.518 179.001 118.335 178.594 112.619C178.187 106.903 177.909 101.216 177.75 95.5664C177.591 89.9263 177.422 85.1718 177.263 81.301C177.263 80.7017 176.736 80.2259 176.111 80.2833C172.753 80.5591 162.114 85.3241 145.386 128.958C159.929 128.663 174.909 131.687 189.243 138.136C226.147 154.75 248.279 189.341 246.997 228.42L244.305 228.344C245.547 190.311 224.011 156.643 188.091 140.476C173.806 134.037 158.886 131.107 144.382 131.574C141.889 138.203 139.277 145.659 136.545 154.019C112.605 227.374 92.459 241.916 75.5718 241.916C73.3268 241.916 71.1513 241.659 69.0255 241.249C62.201 239.938 56.8865 234.211 54.4527 225.529C49.1879 206.784 57.711 176.188 88.6147 150.081C103.903 137.166 122.747 130.052 142.485 129.054C157.574 89.4323 168.73 78.9516 174.213 75.8888C175.783 75.0138 177.114 74.672 177.819 74.5006C178.286 74.3867 178.763 74.3292 179.25 74.3292H179.429L179.419 74.3196ZM141.492 131.678C122.757 132.857 104.926 139.724 90.3928 151.993C60.3534 177.367 52.0091 206.859 57.0554 224.835C59.2209 232.538 63.7805 237.588 69.5619 238.701C86.5684 241.953 107.509 234.354 133.992 153.22C136.585 145.26 139.088 138.107 141.492 131.678Z" fill="black"/>
</svg>
